<?xml version="1.0" encoding="UTF-8" standalone="no"?>
<!DOCTYPE svg PUBLIC "-//W3C//DTD SVG 1.1//EN" "http://www.w3.org/Graphics/SVG/1.1/DTD/svg11.dtd">
<svg width="100%" height="100%" viewBox="0 0 163 163" version="1.1" xmlns="http://www.w3.org/2000/svg" xmlns:xlink="http://www.w3.org/1999/xlink" xml:space="preserve" xmlns:serif="http://www.serif.com/" style="fill-rule:evenodd;clip-rule:evenodd;stroke-linejoin:round;stroke-miterlimit:2;">
    <g transform="matrix(1,0,0,1,-4872.84,-440.805)">
        <g transform="matrix(1.50958,0,0,1.97346,5431.3,-5697.68)">
            <g transform="matrix(0.201691,5.31949e-18,2.81905e-17,0.154282,-437.174,3089.95)">
                <path d="M866.667,400C866.667,252.724 747.276,133.333 600,133.333C452.724,133.333 333.333,252.724 333.333,400C333.333,533.101 430.849,643.422 558.333,663.427L558.333,477.083L490.625,477.083L490.625,400L558.333,400L558.333,341.25C558.333,274.417 598.145,237.5 659.057,237.5C688.233,237.5 718.75,242.708 718.75,242.708L718.75,308.333L685.124,308.333C651.997,308.333 641.667,328.889 641.667,349.978L641.667,400L715.625,400L703.802,477.083L641.667,477.083L641.667,663.427C769.151,643.422 866.667,533.101 866.667,400" style="fill:rgb(24,119,242);fill-rule:nonzero;"/>
                <path d="M703.802,477.083L715.625,400L641.667,400L641.667,349.978C641.667,328.889 651.997,308.333 685.124,308.333L718.75,308.333L718.75,242.708C718.75,242.708 688.233,237.5 659.057,237.5C598.145,237.5 558.333,274.417 558.333,341.25L558.333,400L490.625,400L490.625,477.083L558.333,477.083L558.333,663.427C572.117,665.587 586.048,666.67 600,666.667C614.175,666.667 628.09,665.557 641.667,663.427L641.667,477.083L703.802,477.083" style="fill:white;fill-rule:nonzero;"/>
            </g>
        </g>
    </g>
</svg>
