<?xml version="1.0" encoding="UTF-8" standalone="no"?>
<!DOCTYPE svg PUBLIC "-//W3C//DTD SVG 1.1//EN" "http://www.w3.org/Graphics/SVG/1.1/DTD/svg11.dtd">
<svg width="100%" height="100%" viewBox="0 0 157 157" version="1.1" xmlns="http://www.w3.org/2000/svg" xmlns:xlink="http://www.w3.org/1999/xlink" xml:space="preserve" xmlns:serif="http://www.serif.com/" style="fill-rule:evenodd;clip-rule:evenodd;stroke-linejoin:round;stroke-miterlimit:2;">
    <g transform="matrix(1,0,0,1,-5714.28,-444.253)">
        <g transform="matrix(1.50958,0,0,1.97346,5431.3,-5697.68)">
            <g transform="matrix(0.0183886,0,0,0.0140662,187.457,3112.27)">
                <path d="M2553.32,3090.86L4821.89,555.396C4784.41,543.796 4744.64,537.54 4703.48,537.54L403.155,537.54C181.42,537.54 0,718.96 0,940.695L0,5241.02C0,5282.18 6.257,5321.95 17.856,5359.43L2553.32,3090.86Z" style="fill:rgb(15,157,88);fill-rule:nonzero;"/>
                <path d="M2553.32,3090.86L284.747,5626.32C322.226,5637.92 361.995,5644.17 403.155,5644.17L4703.48,5644.17C4744.64,5644.17 4784.41,5637.92 4821.89,5626.32L2553.32,3090.86Z" style="fill:rgb(66,133,244);fill-rule:nonzero;"/>
                <path d="M2553.32,3090.86L5088.78,5359.43C5100.38,5321.95 5106.63,5282.18 5106.63,5241.02L5106.63,940.695C5106.63,899.535 5100.38,859.766 5088.78,822.287L2553.32,3090.86Z" style="fill:rgb(210,210,210);fill-rule:nonzero;"/>
                <path d="M5106.63,5241.02L2687.7,2822.09L2217.35,3225.24L4636.28,5644.17L4703.48,5644.17C4925.21,5644.17 5106.63,5462.75 5106.63,5241.02Z" style="fill:rgb(241,241,241);fill-rule:nonzero;"/>
                <path d="M4703.48,537.54L0,5241.02C0,5462.75 181.42,5644.17 403.155,5644.17L470.348,5644.17L5106.63,1007.89L5106.63,940.695C5106.63,718.96 4925.21,537.54 4703.48,537.54Z" style="fill:rgb(255,222,72);fill-rule:nonzero;"/>
                <path d="M4703.48,537.54L403.155,537.54C181.42,537.54 0,718.96 0,940.695L0,974.291C0,752.556 181.42,571.136 403.155,571.136L4703.48,571.136C4925.21,571.136 5106.63,752.556 5106.63,974.291L5106.63,940.695C5106.63,718.96 4925.21,537.54 4703.48,537.54Z" style="fill:white;fill-opacity:0.2;fill-rule:nonzero;"/>
                <path d="M4703.48,5610.58L403.155,5610.58C181.42,5610.58 0,5429.16 0,5207.42L0,5241.02C0,5462.75 181.42,5644.17 403.155,5644.17L4703.48,5644.17C4925.21,5644.17 5106.63,5462.75 5106.63,5241.02L5106.63,5207.42C5106.63,5429.16 4925.21,5610.58 4703.48,5610.58Z" style="fill:rgb(38,50,56);fill-opacity:0.1;fill-rule:nonzero;"/>
                <path d="M1142.27,1545.43L1142.27,1831.67L1540.05,1831.67C1508.47,2001.66 1359.31,2125.3 1142.27,2125.3C901.052,2125.3 704.85,1921.03 704.85,1680.49C704.85,1439.94 901.052,1235.67 1142.27,1235.67C1251.12,1235.67 1347.88,1273.3 1425.15,1345.87L1636.81,1134.21C1508.47,1013.94 1341.84,940.696 1142.27,940.696C733.743,940.696 403.156,1271.28 403.156,1679.81C403.156,2088.35 733.743,2418.93 1142.27,2418.93C1568.95,2418.93 1851.83,2118.58 1851.83,1696.61C1851.83,1644.2 1847.12,1593.81 1838.39,1545.43L1142.27,1545.43L1142.27,1545.43Z" style="fill:rgb(238,238,238);fill-rule:nonzero;"/>
                <clipPath id="_clip1">
                    <path id="m" d="M4300.32,0C3860.88,0 3470.49,210.985 3225.24,537.54L403.155,537.54C181.42,537.54 0,718.96 0,940.695L0,5241.02C0,5462.75 181.42,5644.17 403.155,5644.17L4703.48,5644.17C4925.21,5644.17 5106.63,5462.75 5106.63,5241.02L5106.63,2609.09C5388.84,2196.52 5644.17,1824.95 5644.17,1343.85C5644.17,601.373 5042.8,0 4300.32,0Z"/>
                </clipPath>
                <g clip-path="url(#_clip1)">
                    <path d="M4300.32,0C3557.84,0 2956.47,601.373 2956.47,1343.85C2956.47,2356.44 4087.32,2883.9 4221.03,4329.22C4225.07,4369.53 4259.33,4401.11 4300.32,4401.11C4341.31,4401.11 4376.25,4369.53 4379.61,4329.22C4513.32,2883.9 5644.17,2356.44 5644.17,1343.85C5644.17,601.373 5042.8,0 4300.32,0Z" style="fill:rgb(219,68,55);fill-opacity:0.25;fill-rule:nonzero;"/>
                </g>
                <path id="m1" serif:id="m" d="M4300.32,0C3557.84,0 2956.47,601.373 2956.47,1343.85C2956.47,2356.44 4087.32,2883.9 4221.03,4329.22C4225.07,4369.53 4259.33,4401.11 4300.32,4401.11C4341.31,4401.11 4376.25,4369.53 4379.61,4329.22C4513.32,2883.9 5644.17,2356.44 5644.17,1343.85C5644.17,601.373 5042.8,0 4300.32,0Z" style="fill:rgb(219,68,55);fill-rule:nonzero;"/>
                <circle cx="4300.32" cy="1343.85" r="470.348" style="fill:rgb(123,35,30);"/>
                <path d="M4300.32,33.596C5036.08,33.596 5633.42,624.89 5643.5,1357.96C5643.5,1353.26 5644.17,1348.55 5644.17,1343.85C5644.17,601.373 5042.8,0 4300.32,0C3557.84,0 2956.47,601.373 2956.47,1343.85C2956.47,1348.55 2957.14,1353.26 2957.14,1357.96C2967.22,624.891 3564.56,33.596 4300.32,33.596Z" style="fill:white;fill-opacity:0.2;fill-rule:nonzero;"/>
                <path d="M4379.61,4295.62C4376.25,4335.93 4341.31,4367.52 4300.32,4367.52C4259.34,4367.52 4224.4,4335.93 4221.03,4295.62C4088.67,2857.03 2967.89,2327.55 2957.14,1324.37C2957.14,1331.08 2956.47,1337.13 2956.47,1343.85C2956.47,2356.44 4087.32,2883.9 4221.04,4329.22C4225.07,4369.53 4259.34,4401.11 4300.32,4401.11C4341.31,4401.11 4376.25,4369.53 4379.61,4329.22C4513.32,2883.9 5644.17,2356.44 5644.17,1343.85C5644.17,1337.13 5643.5,1331.08 5643.5,1324.37C5632.75,2327.55 4512.65,2857.7 4379.61,4295.62Z" style="fill:rgb(62,39,35);fill-opacity:0.2;fill-rule:nonzero;"/>
                <path d="M4300.32,0C3860.88,0 3470.49,210.985 3225.24,537.54L403.155,537.54C181.42,537.54 0,718.96 0,940.695L0,5241.02C0,5462.75 181.42,5644.17 403.155,5644.17L4703.48,5644.17C4925.21,5644.17 5106.63,5462.75 5106.63,5241.02L5106.63,2609.09C5388.84,2196.52 5644.17,1824.95 5644.17,1343.85C5644.17,601.373 5042.8,0 4300.32,0Z" style="fill:url(#_Radial2);fill-rule:nonzero;"/>
            </g>
        </g>
    </g>
    <defs>
        <radialGradient id="_Radial2" cx="0" cy="0" r="1" gradientUnits="userSpaceOnUse" gradientTransform="matrix(6883.61,0,0,-6883.61,140.097,648.811)"><stop offset="0" style="stop-color:white;stop-opacity:0.1"/><stop offset="1" style="stop-color:white;stop-opacity:0"/></radialGradient>
    </defs>
</svg>
