<?xml version="1.0" encoding="iso-8859-1"?>
<!-- Generator: Adobe Illustrator 16.0.0, SVG Export Plug-In . SVG Version: 6.00 Build 0)  -->
<!DOCTYPE svg PUBLIC "-//W3C//DTD SVG 1.1//EN" "http://www.w3.org/Graphics/SVG/1.1/DTD/svg11.dtd">
<svg version="1.1" id="Capa_1" xmlns="http://www.w3.org/2000/svg" xmlns:xlink="http://www.w3.org/1999/xlink" x="0px" y="0px"
	 width="585.918px" height="585.918px" viewBox="0 0 585.918 585.918" style="enable-background:new 0 0 585.918 585.918;"
	 xml:space="preserve">
<g>
	<path d="M537.115,48.979h-177.39c-0.787,0-1.553,0.077-2.329,0.124V0L11.176,46.206v492.311l346.22,47.402v-50.583
		c0.776,0.052,1.542,0.114,2.329,0.114h177.39c20.745,0,37.627-16.888,37.627-37.627V86.602
		C574.742,65.859,557.86,48.979,537.115,48.979z M94.778,354.073L73.61,312.67l-7.278,9.899v30.636l-18.544-0.576v-92.451
		l18.544-0.815v41.486h0.378c1.874-3.648,3.874-7.031,5.761-10.417l19.577-32.216l24.759-1.102l-29.426,41.952l31.048,55.748
		L94.778,354.073z M211.549,357.663L210,317.558c-0.462-12.577-0.929-27.789-0.929-42.991l-0.467,0.011
		c-3.242,13.408-7.539,28.308-11.515,40.481l-12.375,40.104l-17.567-0.52l-10.412-39.291c-3.15-11.765-6.423-26.014-8.691-39.021
		l-0.286,0.01c-0.564,13.509-0.99,28.932-1.688,41.384l-1.698,37.869l-19.562-0.598l5.903-98.517l28.615-1.271l9.572,33.479
		c3.068,11.729,6.16,24.407,8.386,36.387l0.441,0.005c2.816-11.839,6.247-25.413,9.536-36.896l10.884-34.693l31.027-1.387
		l5.925,106.283L211.549,357.663z M327.217,361.222l-73.069-2.246V250.992l25.717-1.142v89.046l47.352,0.781V361.222z
		 M404.18,217.776c12.687,10.843,24.776,22.374,37.51,33.151c18.395,15.562,36.842,31.081,55.834,45.895
		c10.372,8.1,22.315,13.864,35.328,16.937c2.53,0.587,3.623,1.688,2.805,4.659c-1.251,4.526-1.828,9.219-2.81,13.817
		c-0.729,3.376-2.42,4.368-6.199,3.634c-24.473-4.763-47.245-14.143-68.143-27.268c-26.416-16.563-51.858-34.671-77.854-51.92
		c-5.88-3.903-12.2-7.215-18.516-10.392c-1.59-0.801-3.176-1.496-4.739-2.107v-41.1C374.33,201.926,390.231,205.877,404.18,217.776z
		 M380.272,180.632c5.942-1.32,11.832-3.101,17.849-3.9c34.487-4.585,65.544,4.304,92.946,25.328
		c18.902,14.486,32.293,33.294,39.958,55.996c2.174,6.422,1.48,9.724-2.762,13.181c-3.884,3.165-9.406,3.725-14.006-0.194
		c-6.11-5.216-11.759-11.095-16.881-17.299c-11.581-14.008-21.933-29.135-34.222-42.46c-15.838-17.174-36.437-25.57-59.78-26.985
		c-6.378-0.38-12.771-0.606-19.155-0.968c-1.229-0.063-2.456-0.396-3.68-0.601C380.441,182.031,380.355,181.338,380.272,180.632z
		 M363.701,402.64c0.393,1.563,0.645,3.182,1.233,6.069c-2.897-1.025-4.903-1.465-6.668-2.39c-0.299-0.157-0.571-0.34-0.87-0.498
		v-56.41c18.739,7.736,37.585,15.127,57.606,18.929c14.635,2.787,29.543,4.814,44.415,5.555c17.229,0.86,34.074-3.119,50.672-7.666
		c1.555-0.424,3.119-0.786,4.683-1.174c0.493,0.524,0.977,1.039,1.465,1.563c-2.393,3.296-4.877,6.531-7.165,9.905
		c-9.7,14.285-24.851,17.292-40.347,19.627c-29.303,4.426-58.027,0.992-86.469-6.35c-1.626-0.426-3.28-0.758-4.935-1.099
		C365.506,386.272,360.798,391.097,363.701,402.64z M553.24,497.823c0,8.892-7.232,16.127-16.125,16.127h-177.39
		c-0.797,0-1.563-0.111-2.329-0.231v-97.729c17.149,8.552,36.361,13.518,56.709,13.665c73.975,0.556,133.104-60.116,133.245-131.882
		c0.138-73.554-60.033-132.589-132.149-132.313c-20.682-0.06-40.305,4.832-57.805,13.486V70.722
		c0.766-0.112,1.532-0.242,2.329-0.242h177.39c8.893,0,16.125,7.236,16.125,16.126V497.823z"/>
</g>
<g>
</g>
<g>
</g>
<g>
</g>
<g>
</g>
<g>
</g>
<g>
</g>
<g>
</g>
<g>
</g>
<g>
</g>
<g>
</g>
<g>
</g>
<g>
</g>
<g>
</g>
<g>
</g>
<g>
</g>
</svg>
