<?xml version="1.0" encoding="iso-8859-1"?>
<!-- Uploaded to: SVG Repo, www.svgrepo.com, Generator: SVG Repo Mixer Tools -->
<svg height="800px" width="800px" version="1.1" id="Layer_1" xmlns="http://www.w3.org/2000/svg" xmlns:xlink="http://www.w3.org/1999/xlink" 
	 viewBox="0 0 512 512" xml:space="preserve">
<path style="fill:#FF6464;" d="M474.477,270.129l-37.512,30.009v-97.103h35.31c4.875,0,8.828,3.953,8.828,8.828v44.48
	C481.103,261.706,478.666,266.778,474.477,270.129z"/>
<path style="fill:#FFB450;" d="M474.477,225.991L436.966,256v-97.103h35.31c4.875,0,8.828,3.953,8.828,8.828v44.48
	C481.103,217.568,478.666,222.641,474.477,225.991z"/>
<path style="fill:#FFE164;" d="M474.477,181.853l-37.512,30.009v-97.103h35.31c4.875,0,8.828,3.953,8.828,8.828v44.48
	C481.103,173.43,478.666,178.503,474.477,181.853z"/>
<path style="fill:#A5EB78;" d="M474.477,137.715l-37.512,30.009V70.621h35.31c4.875,0,8.828,3.953,8.828,8.828v44.48
	C481.103,129.292,478.666,134.365,474.477,137.715z"/>
<path style="fill:#00D2FF;" d="M474.477,93.577l-37.512,30.009V26.483h35.31c4.875,0,8.828,3.953,8.828,8.828v44.48
	C481.103,85.154,478.666,90.227,474.477,93.577z"/>
<path style="fill:#FFA05A;" d="M445.793,512H66.207c-4.875,0-8.828-3.953-8.828-8.828V8.828C57.379,3.953,61.332,0,66.207,0h379.586
	c4.875,0,8.828,3.953,8.828,8.828v494.345C454.621,508.047,450.668,512,445.793,512z"/>
<path style="fill:#5B5D6E;" d="M136.828,512H66.207c-4.875,0-8.828-3.953-8.828-8.828V8.828C57.379,3.953,61.332,0,66.207,0h70.621
	V512z"/>
<g>
	<path style="fill:#707487;" d="M75.034,88.276h-35.31c-4.875,0-8.828-3.953-8.828-8.828c0-4.875,3.953-8.828,8.828-8.828h35.31
		c4.875,0,8.828,3.953,8.828,8.828C83.862,84.323,79.91,88.276,75.034,88.276z"/>
	<path style="fill:#707487;" d="M75.034,44.138h-35.31c-4.875,0-8.828-3.953-8.828-8.828s3.953-8.828,8.828-8.828h35.31
		c4.875,0,8.828,3.953,8.828,8.828S79.91,44.138,75.034,44.138z"/>
	<path style="fill:#707487;" d="M75.034,485.517h-35.31c-4.875,0-8.828-3.953-8.828-8.828c0-4.875,3.953-8.828,8.828-8.828h35.31
		c4.875,0,8.828,3.953,8.828,8.828C83.862,481.565,79.91,485.517,75.034,485.517z"/>
	<path style="fill:#707487;" d="M75.034,132.414h-35.31c-4.875,0-8.828-3.953-8.828-8.828c0-4.875,3.953-8.828,8.828-8.828h35.31
		c4.875,0,8.828,3.953,8.828,8.828C83.862,128.461,79.91,132.414,75.034,132.414z"/>
	<path style="fill:#707487;" d="M75.034,176.552h-35.31c-4.875,0-8.828-3.953-8.828-8.828s3.953-8.828,8.828-8.828h35.31
		c4.875,0,8.828,3.953,8.828,8.828S79.91,176.552,75.034,176.552z"/>
	<path style="fill:#707487;" d="M75.034,220.69h-35.31c-4.875,0-8.828-3.953-8.828-8.828c0-4.875,3.953-8.828,8.828-8.828h35.31
		c4.875,0,8.828,3.953,8.828,8.828C83.862,216.737,79.91,220.69,75.034,220.69z"/>
	<path style="fill:#707487;" d="M75.034,264.828h-35.31c-4.875,0-8.828-3.953-8.828-8.828s3.953-8.828,8.828-8.828h35.31
		c4.875,0,8.828,3.953,8.828,8.828S79.91,264.828,75.034,264.828z"/>
	<path style="fill:#707487;" d="M75.034,308.966h-35.31c-4.875,0-8.828-3.953-8.828-8.828s3.953-8.828,8.828-8.828h35.31
		c4.875,0,8.828,3.953,8.828,8.828S79.91,308.966,75.034,308.966z"/>
	<path style="fill:#707487;" d="M75.034,353.103h-35.31c-4.875,0-8.828-3.953-8.828-8.828c0-4.875,3.953-8.828,8.828-8.828h35.31
		c4.875,0,8.828,3.953,8.828,8.828C83.862,349.151,79.91,353.103,75.034,353.103z"/>
	<path style="fill:#707487;" d="M75.034,397.241h-35.31c-4.875,0-8.828-3.953-8.828-8.828s3.953-8.828,8.828-8.828h35.31
		c4.875,0,8.828,3.953,8.828,8.828S79.91,397.241,75.034,397.241z"/>
	<path style="fill:#707487;" d="M75.034,441.379h-35.31c-4.875,0-8.828-3.953-8.828-8.828s3.953-8.828,8.828-8.828h35.31
		c4.875,0,8.828,3.953,8.828,8.828S79.91,441.379,75.034,441.379z"/>
</g>
<path style="fill:#464655;" d="M110.345,494.345L110.345,494.345c-4.875,0-8.828-3.953-8.828-8.828V26.483
	c0-4.875,3.953-8.828,8.828-8.828l0,0c4.875,0,8.828,3.953,8.828,8.828v459.034C119.172,490.392,115.22,494.345,110.345,494.345z"/>
<path style="fill:#FFEBC3;" d="M331.034,290.15v-11.571c5.674-4.287,9.535-10.582,10.426-17.716l1.711-13.691h0.27
	c3.084,0,5.772-2.099,6.52-5.09l4.385-17.542c1.352-5.402-1.885-10.615-6.874-12.169c0.782-6.75,1.217-13.535,1.217-20.329v-6.664
	c0-19.501-15.809-35.31-35.31-35.31h-35.31c-19.501,0-35.31,15.809-35.31,35.31v6.664c0,6.795,0.434,13.58,1.217,20.329
	c-4.99,1.554-8.225,6.765-6.874,12.169l4.385,17.542c0.748,2.991,3.436,5.09,6.52,5.09h0.268l1.711,13.692
	c0.892,7.134,4.753,13.428,10.426,17.716v11.571c0,5.912-3.919,11.107-9.603,12.732l-39.384,11.253
	c-7.58,2.166-12.804,9.094-12.804,16.975v21.993c0,4.875,3.953,8.828,8.828,8.828h176.552c4.875,0,8.828-3.953,8.828-8.828v-21.993
	c0-7.883-5.226-14.81-12.804-16.975l-39.384-11.253C334.954,301.258,331.034,296.062,331.034,290.15z"/>
<path style="fill:#F08C46;" d="M313.379,150.069c19.501,0,35.31,15.809,35.31,35.31v6.664c0,6.795-0.435,13.58-1.217,20.329
	c4.99,1.554,8.226,6.765,6.874,12.169l-4.385,17.542c-0.748,2.991-3.436,5.09-6.52,5.09h-0.269l-1.711,13.692
	c-0.892,7.134-4.754,13.429-10.426,17.716v11.57c0,5.912,3.919,11.107,9.603,12.732l39.384,11.253
	c7.58,2.166,12.804,9.094,12.804,16.975v21.994c0,4.875-3.953,8.828-8.828,8.828H207.448c-4.875,0-8.828-3.953-8.828-8.828v-21.993
	c0-7.883,5.226-14.81,12.804-16.975l39.384-11.253c5.685-1.624,9.603-6.82,9.603-12.732v-11.57
	c-5.674-4.288-9.535-10.582-10.426-17.716l-1.71-13.693h-0.27c-3.083,0-5.772-2.099-6.52-5.09l-4.385-17.542
	c-1.351-5.402,1.885-10.615,6.874-12.169c-0.783-6.75-1.217-13.535-1.217-20.329v-6.664c0-19.501,15.809-35.31,35.31-35.31H313.379
	 M313.379,132.414h-35.31c-29.205,0-52.966,23.761-52.966,52.966v6.664c0,4.025,0.14,8.15,0.418,12.337
	c-5.441,6.599-7.763,15.586-5.548,24.442l4.385,17.542c1.241,4.963,3.943,9.244,7.578,12.429l0.533,4.26
	c1.077,8.616,4.654,16.557,10.29,23.065v0.702l-36.183,10.338c-15.08,4.308-25.611,18.27-25.611,33.952v21.993
	c0,14.603,11.88,26.483,26.483,26.483H384c14.603,0,26.483-11.88,26.483-26.483v-21.993c0-15.682-10.531-29.644-25.61-33.952
	L348.69,286.82v-0.701c5.635-6.508,9.214-14.45,10.291-23.066l0.535-4.286c3.647-3.183,6.337-7.454,7.574-12.404l4.385-17.542
	c2.215-8.856-0.108-17.845-5.549-24.444c0.278-4.189,0.418-8.312,0.418-12.337v-6.663
	C366.345,156.174,342.584,132.414,313.379,132.414L313.379,132.414z"/>
</svg>