<?xml version="1.0" encoding="UTF-8" standalone="no"?>
<!DOCTYPE svg PUBLIC "-//W3C//DTD SVG 1.1//EN" "http://www.w3.org/Graphics/SVG/1.1/DTD/svg11.dtd">
<svg width="100%" height="100%" viewBox="0 0 159 114" version="1.1" xmlns="http://www.w3.org/2000/svg" xmlns:xlink="http://www.w3.org/1999/xlink" xml:space="preserve" xmlns:serif="http://www.serif.com/" style="fill-rule:evenodd;clip-rule:evenodd;stroke-linejoin:round;stroke-miterlimit:2;">
    <g transform="matrix(1,0,0,1,-5291.28,-462.781)">
        <g transform="matrix(1.50958,0,0,1.97346,5431.3,-5697.68)">
            <g transform="matrix(1.25114,2.38642e-17,6.32339e-17,0.957057,-100.263,3104.43)">
                <path d="M45,24L40.757,19.757C39.632,18.632 38.106,18 36.515,18L9,18C7.343,18 6,19.343 6,21L6,77C6,77.552 6.448,78 7,78L89,78C89.552,78 90,77.552 90,77L90,27C90,25.343 88.657,24 87,24L45,24Z" style="fill:rgb(255,185,0);fill-rule:nonzero;"/>
                <path d="M45,24L40.757,28.243C39.632,29.368 38.106,30 36.515,30L6,30L6,77C6,77.552 6.448,78 7,78L89,78C89.552,78 90,77.552 90,77L90,27C90,25.343 88.657,24 87,24L45,24Z" style="fill:rgb(255,215,94);fill-rule:nonzero;"/>
                <path d="M45,24L40.757,28.243C39.632,29.368 38.106,30 36.515,30L6,30L6,77C6,77.552 6.448,78 7,78L89,78C89.552,78 90,77.552 90,77L90,27C90,25.343 88.657,24 87,24L45,24Z" style="fill:url(#_Linear1);fill-rule:nonzero;"/>
                <path d="M6,30L6,31L36.6,31C38.457,31 40.237,30.263 41.55,28.95L46.5,24L45,24L40.757,28.243C39.632,29.368 38.106,30 36.515,30L6,30Z" style="fill:white;fill-opacity:0.4;fill-rule:nonzero;"/>
                <path d="M89,78L7,78C6.448,78 6,77.552 6,77L90,77C90,77.552 89.552,78 89,78Z" style="fill:rgb(218,123,22);fill-rule:nonzero;"/>
            </g>
        </g>
    </g>
    <defs>
        <linearGradient id="_Linear1" x1="0" y1="0" x2="1" y2="0" gradientUnits="userSpaceOnUse" gradientTransform="matrix(3.30655e-15,54,-54,3.30655e-15,48,24)"><stop offset="0" style="stop-color:white;stop-opacity:0"/><stop offset="1" style="stop-color:rgb(255,215,94);stop-opacity:0.3"/></linearGradient>
    </defs>
</svg>
