<?xml version="1.0" encoding="iso-8859-1"?>
<!-- Generator: Adobe Illustrator 16.0.0, SVG Export Plug-In . SVG Version: 6.00 Build 0)  -->
<!DOCTYPE svg PUBLIC "-//W3C//DTD SVG 1.1//EN" "http://www.w3.org/Graphics/SVG/1.1/DTD/svg11.dtd">
<svg version="1.1" id="Capa_1" xmlns="http://www.w3.org/2000/svg" xmlns:xlink="http://www.w3.org/1999/xlink" x="0px" y="0px"
	 width="585.918px" height="585.918px" viewBox="0 0 585.918 585.918" style="enable-background:new 0 0 585.918 585.918;"
	 xml:space="preserve">
<g>
	<path d="M537.115,48.979h-177.39c-0.787,0-1.553,0.077-2.329,0.124V0L11.176,46.206v492.311l346.22,47.402v-50.583
		c0.776,0.052,1.542,0.114,2.329,0.114h177.39c20.745,0,37.627-16.888,37.627-37.627V86.602
		C574.742,65.859,557.86,48.979,537.115,48.979z M119.204,339.961c-6.812,2.215-19.512,5.056-31.967,4.484
		c-16.814-0.783-28.704-5.959-36.853-15.225c-8.048-8.833-12.413-21.885-12.284-36.43c0.128-32.929,21.363-52.523,51.368-53.641
		c12.208-0.452,21.78,1.832,26.544,4.166l-4.617,19.168c-5.307-2.385-11.838-4.263-22.212-4.037
		c-17.405,0.378-30.253,11.422-30.253,33.257c0,20.777,11.627,33.403,28.733,33.938c4.868,0.146,8.787-0.341,10.48-1.218V302.68
		l-14.496-0.194v-18.146l35.562-0.052v55.674H119.204z M203.116,297.042c-8.539,8.073-20.982,11.518-35.252,11.275
		c-3.129-0.052-5.935-0.262-8.109-0.618v38.982l-22.994-1.046V239.94c7.067-1.527,17.131-2.855,31.575-3.391
		c14.917-0.549,25.753,2.036,33.129,7.787c7.121,5.483,11.966,14.771,11.966,25.877C213.431,281.32,209.759,290.728,203.116,297.042
		z M288.363,352.53l-11.278-21.985c-4.575-8.383-7.488-14.583-10.921-21.46l-0.362-0.011c-2.525,6.757-5.572,12.784-9.331,20.841
		l-9.906,20.715l-29.943-1.365l33.641-57.365l-32.461-56.33l30.171-1.091l10.467,20.982c3.58,7.062,6.284,12.777,9.174,19.378
		l0.362-0.005c2.902-7.554,5.268-12.854,8.385-19.761l10.512-22.011l33.084-1.2l-36.055,59.468l37.992,62.713L288.363,352.53z
		 M553.24,497.823c0,8.892-7.232,16.127-16.125,16.127h-177.39c-0.797,0-1.563-0.111-2.329-0.231v-116.5h17.228
		c12.211-17.948,32.495-42.883,61.67-64.134h-78.897v-8.949h92.2c20.326-12.745,44.268-23.377,72.211-29.016l-17.732-67.146h-38.32
		c-3.119,7.457-6.353,15.084-9.518,22.523c13.686,4.914,23.092,14.644,23.092,25.969c0,16.239-19.266,29.429-43.025,29.429
		c-20.57,0-37.731-9.912-41.974-23.09h-36.934v-14.358h37.707c3.248-7.816,11.081-14.289,21.349-18.002
		c-2.604-7.053-5.466-14.772-8.284-22.476h-50.762V70.722c0.767-0.112,1.532-0.242,2.33-0.242h177.39
		c8.892,0,16.125,7.236,16.125,16.126v411.216H553.24z"/>
	<path d="M169.592,255.239c-4.853,0.113-8.131,0.667-9.832,1.197v32.178c2.016,0.494,4.507,0.661,7.951,0.672
		c12.827,0.032,20.863-6.729,20.863-18.121C188.569,260.914,181.651,254.958,169.592,255.239z"/>
	<path d="M524.311,304.612c-13.616,3.267-30.828,9.146-49.78,19.523h54.94L524.311,304.612z"/>
	<path d="M459.649,333.084c-21.896,14.268-45.37,34.679-67.928,64.134h157.057l-16.935-64.134H459.649z"/>
	<path d="M438.085,138.618c-20.142,0-36.453,16.326-36.453,36.452c0,3.924,0.642,7.709,1.79,11.255
		c1.88,6.607,17.996,50.071,26.742,73.573c-10.258,1.785-17.854,7.838-17.854,15.079c0,8.643,10.744,15.63,23.99,15.63
		c13.249,0,23.982-6.987,23.982-15.63c0-7.278-7.658-13.347-17.994-15.095c9.518-22.152,26.505-61.945,29.906-72.04
		c1.491-3.98,2.346-8.274,2.346-12.768C474.53,154.944,458.216,138.618,438.085,138.618z M450.883,274.977
		c0,5.252-6.531,9.514-14.589,9.514c-8.057,0-14.593-4.262-14.593-9.514c0-4.37,4.529-8.011,10.666-9.121
		c2.079,5.53,3.412,9.121,3.412,9.121s1.565-3.625,3.991-9.23C446.143,266.775,450.883,270.499,450.883,274.977z M438.085,198.454
		c-12.857,0-23.255-10.402-23.255-23.233c0-12.858,10.397-23.266,23.255-23.266c12.839,0,23.25,10.412,23.25,23.266
		C461.335,188.057,450.924,198.454,438.085,198.454z"/>
</g>
<g>
</g>
<g>
</g>
<g>
</g>
<g>
</g>
<g>
</g>
<g>
</g>
<g>
</g>
<g>
</g>
<g>
</g>
<g>
</g>
<g>
</g>
<g>
</g>
<g>
</g>
<g>
</g>
<g>
</g>
</svg>
