<svg xmlns="http://www.w3.org/2000/svg" viewBox="1066.667 586.67 426.667 426.667" width="426.667" height="426.667"><defs><clipPath clipPathUnits="userSpaceOnUse" id="a"><path d="M-1056.363 768.504H880.645V-448.504h-1937.008Z"/></clipPath><clipPath clipPathUnits="userSpaceOnUse" id="b"><path d="M-1075.16 593.428H861.848V-623.58H-1075.16Z"/></clipPath><clipPath clipPathUnits="userSpaceOnUse" id="c"><path d="M-1039.667 620.994H897.341V-596.014h-1937.008Z"/></clipPath><clipPath clipPathUnits="userSpaceOnUse" id="d"><path d="M-928.793 620.994h1937.008V-596.014H-928.793Z"/></clipPath><clipPath clipPathUnits="userSpaceOnUse" id="e"><path d="M-946.837 570.358H990.171V-646.65H-946.837Z"/></clipPath><clipPath clipPathUnits="userSpaceOnUse" id="f"><path d="M-998.346 570.358H938.662V-646.65H-998.346Z"/></clipPath></defs><path d="M0 0h-175.719c-39.843 0-72.14 32.299-72.14 72.141v175.718c0 39.842 32.297 72.141 72.14 72.141H0c39.843 0 72.141-32.299 72.141-72.141V72.141C72.141 32.299 39.843 0 0 0" style="fill:#06c755;fill-opacity:1;fill-rule:nonzero;stroke:none" transform="matrix(1.33333 0 0 -1.33333 1397.146 1013.336)" clip-path="url(#a)"/><path d="M0 0c0 47.74-47.859 86.58-106.688 86.58-58.825 0-106.689-38.84-106.689-86.58 0-42.798 37.955-78.642 89.226-85.417 3.473-.751 8.203-2.292 9.398-5.262 1.076-2.696.704-6.922.346-9.646 0 0-1.252-7.529-1.524-9.134-.465-2.695-2.144-10.549 9.243-5.752 11.386 4.799 61.44 36.18 83.824 61.941h-.005C-7.408-36.313 0-19.105 0 0" style="fill:#fff;fill-opacity:1;fill-rule:nonzero;stroke:none" transform="matrix(1.33333 0 0 -1.33333 1422.208 779.903)" clip-path="url(#b)"/><path d="M0 0h-29.974a2.036 2.036 0 0 0-2.037 2.037v46.561c0 1.125.912 2.037 2.037 2.037H0c1.12 0 2.037-.916 2.037-2.037v-7.566A2.037 2.037 0 0 0 0 38.995h-20.37v-7.857H0c1.12 0 2.037-.917 2.037-2.037v-7.567A2.037 2.037 0 0 0 0 19.497h-20.37V11.64H0c1.12 0 2.037-.916 2.037-2.036V2.037A2.036 2.036 0 0 0 0 0" style="fill:#06c755;fill-opacity:1;fill-rule:nonzero;stroke:none" transform="matrix(1.33333 0 0 -1.33333 1374.884 816.657)" clip-path="url(#c)"/><path d="M0 0c1.125 0 2.037.911 2.037 2.037v7.567c0 1.12-.917 2.036-2.037 2.036h-20.371v36.958a2.04 2.04 0 0 1-2.036 2.037h-7.567a2.037 2.037 0 0 1-2.037-2.037V2.037c0-1.126.912-2.037 2.037-2.037h.04z" style="fill:#06c755;fill-opacity:1;fill-rule:nonzero;stroke:none" transform="matrix(1.33333 0 0 -1.33333 1227.052 816.657)" clip-path="url(#d)"/><path d="M0 0h-7.565a2.04 2.04 0 0 1-2.038-2.037v-46.562c0-1.125.913-2.037 2.038-2.037H0c1.126 0 2.037.912 2.037 2.037v46.562A2.037 2.037 0 0 1 0 0" style="fill:#06c755;fill-opacity:1;fill-rule:nonzero;stroke:none" transform="matrix(1.33333 0 0 -1.33333 1251.11 749.142)" clip-path="url(#e)"/><path d="M0 0h-7.566a2.04 2.04 0 0 1-2.037-2.037v-27.655L-30.906-.923a2 2 0 0 1-.164.21l-.013.015q-.059.067-.123.127l-.038.035-.11.094-.056.041q-.051.037-.108.074l-.062.037a2 2 0 0 1-.112.062l-.065.032-.119.051-.066.024a2 2 0 0 1-.318.085l-.086.014-.11.012q-.054.005-.108.006l-.071.004h-7.524a2.04 2.04 0 0 1-2.037-2.037v-46.562c0-1.125.912-2.037 2.037-2.037h7.566c1.125 0 2.037.912 2.037 2.037v27.646l21.33-28.805c.147-.208.327-.378.526-.513l.023-.016q.063-.042.128-.078l.06-.032a1 1 0 0 1 .098-.048 1.4 1.4 0 0 1 .164-.067q.069-.025.141-.045.015-.005.029-.007c.17-.045.348-.072.533-.072H0c1.125 0 2.037.912 2.037 2.037v46.562A2.04 2.04 0 0 1 0 0" style="fill:#06c755;fill-opacity:1;fill-rule:nonzero;stroke:none" transform="matrix(1.33333 0 0 -1.33333 1319.79 749.142)" clip-path="url(#f)"/></svg>