<?xml version="1.0" encoding="UTF-8" standalone="no"?>
<!DOCTYPE svg PUBLIC "-//W3C//DTD SVG 1.1//EN" "http://www.w3.org/Graphics/SVG/1.1/DTD/svg11.dtd">
<svg width="100%" height="100%" viewBox="0 0 186 186" version="1.1" xmlns="http://www.w3.org/2000/svg" xmlns:xlink="http://www.w3.org/1999/xlink" xml:space="preserve" xmlns:serif="http://www.serif.com/" style="fill-rule:evenodd;clip-rule:evenodd;stroke-linejoin:round;stroke-miterlimit:2;">
    <g transform="matrix(1,0,0,1,-5074.21,-428.862)">
        <g transform="matrix(1.50958,0,0,1.97346,5431.3,-5697.68)">
            <g transform="matrix(0.0492846,0,0,0.0377,-174.944,3151.6)">
                <g transform="matrix(1,0,0,1,-1250,-1250)">
                    <clipPath id="_clip1">
                        <rect x="0" y="0" width="2500" height="2500"/>
                    </clipPath>
                    <g clip-path="url(#_clip1)">
                        <path d="M2500,474.657C2408.06,515.393 2309.3,542.919 2205.47,555.36C2311.39,491.943 2392.65,391.305 2430.96,271.513C2331.87,330.311 2222.1,373.029 2105.28,395.93C2011.69,296.401 1878.47,234.082 1730.93,234.082C1447.74,234.082 1218.07,463.756 1218.07,747.161C1218.09,786.437 1222.52,825.588 1231.28,863.874C804.855,842.399 427.089,638.157 174.073,327.889C130.037,403.859 104.708,491.943 104.708,585.749C104.708,763.672 195.327,920.793 332.841,1012.73C251.4,1010.14 171.744,988.127 100.525,948.539L100.525,955.144C100.525,1203.64 277.241,1410.97 511.98,1458.1C467.933,1469.98 422.505,1475.98 376.883,1475.93C344.486,1475.96 312.157,1472.93 280.326,1466.9C345.616,1670.59 534.994,1819.01 759.494,1822.98C583.876,1960.6 362.682,2042.63 122.435,2042.63C81.037,2042.63 40.187,2040.21 -0,2035.47C227.035,2181.14 496.568,2265.92 786.137,2265.92C1729.72,2265.92 2245.55,1484.4 2245.55,806.615C2245.55,784.597 2245,762.353 2244.01,740.335C2344.2,667.884 2431.18,577.712 2499.77,474.985L2500,474.657Z" style="fill:rgb(29,161,242);fill-rule:nonzero;"/>
                    </g>
                </g>
            </g>
        </g>
    </g>
</svg>
