<?xml version="1.0" encoding="UTF-8" standalone="no"?><!DOCTYPE svg PUBLIC "-//W3C//DTD SVG 1.1//EN" "http://www.w3.org/Graphics/SVG/1.1/DTD/svg11.dtd"><svg width="100%" height="100%" viewBox="0 0 762 788" version="1.1" xmlns="http://www.w3.org/2000/svg" xmlns:xlink="http://www.w3.org/1999/xlink" xml:space="preserve" xmlns:serif="http://www.serif.com/" style="fill-rule:evenodd;clip-rule:evenodd;stroke-linejoin:round;stroke-miterlimit:2;"><g><g><path d="M277.172,196.22l0,109.952c0,47.15 -38.28,85.431 -85.431,85.431l-106.31,-0c-47.151,-0 -85.431,-38.281 -85.431,-85.431l-0,-109.952c-0,-47.151 38.28,-85.432 85.431,-85.432l106.31,0c47.151,0 85.431,38.281 85.431,85.432Zm-61.847,15.371l0,-15.371c0,-13.017 -10.567,-23.585 -23.584,-23.585l-106.31,0c-13.016,0 -23.584,10.568 -23.584,23.585l-0,27.33c5.961,-4.117 12.104,-7.821 18.251,-10.765c20.356,-9.754 40.937,-11.556 58.268,-3.12c11.659,5.675 22.734,16.146 30.651,34.697c2.44,5.718 6.523,11.179 8.118,13.205c1.417,-0.716 3.942,-2.056 5.465,-3.238c5.294,-4.106 10.243,-9.669 14.709,-15.352c8.135,-10.354 14.621,-21.294 18.016,-27.386Zm-153.478,78.379l-0,16.202c-0,13.016 10.568,23.584 23.584,23.584l106.31,-0c13.017,-0 23.584,-10.568 23.584,-23.584l0,-12.896c-13.159,10.406 -27.626,16.297 -41.182,15.68c-17.378,-0.791 -37.49,-10.67 -51.971,-44.602c-1.796,-4.208 -3.366,-7.383 -5.971,-8.828c-2.964,-1.644 -6.326,0.05 -9.851,1.37c-5.521,2.067 -11.065,5.333 -16.433,9.034c-10.654,7.346 -20.556,16.445 -28.07,24.04Z" style="fill:url(#_Linear1);"/><path d="M496.174,330.75c0,0 -48.899,-65.476 -78.267,-124.379c-14.743,-29.568 -24.112,-58.096 -24.112,-78.211c0,-70.734 57.427,-128.16 128.16,-128.16c70.734,-0 128.16,57.426 128.16,128.16c-0,20.115 -9.369,48.643 -24.111,78.211c-29.368,58.903 -78.268,124.379 -78.268,124.379c-6.078,8.127 -15.632,12.913 -25.781,12.913c-10.148,-0 -19.703,-4.786 -25.781,-12.913Zm25.781,-75.223c14.701,-21.885 32.842,-50.641 46.426,-77.886c9.445,-18.943 17.346,-36.595 17.346,-49.481c0,-35.197 -28.575,-63.772 -63.772,-63.772c-35.197,-0 -63.772,28.575 -63.772,63.772c-0,12.886 7.901,30.538 17.346,49.481c13.584,27.245 31.726,56.001 46.426,77.886Z" style="fill:url(#_Linear2);"/><path d="M537.99,627.884c-35.958,-0.081 -65.126,-29.299 -65.126,-65.276l0,-105.871c0,-36.027 29.249,-65.276 65.275,-65.276l158.304,0c36.027,0 65.276,29.249 65.276,65.276l-0,105.871c-0,36.027 -29.249,65.276 -65.276,65.276l-19.285,-0l-90.277,68.056c-9.431,7.11 -22.088,8.227 -32.618,2.879c-10.53,-5.348 -17.095,-16.227 -16.917,-28.036l0.644,-42.899Zm161.882,-171.147c0,-1.892 -1.536,-3.429 -3.429,-3.429l-158.304,0c-1.892,0 -3.428,1.537 -3.428,3.429l-0,105.871c-0,1.893 1.536,3.429 3.428,3.429l31.243,-0c8.282,-0 16.217,3.322 22.029,9.222c5.812,5.9 9.015,13.885 8.891,22.166l-0.167,11.071l48.058,-36.229c5.363,-4.043 11.898,-6.23 18.615,-6.23l29.635,-0c1.893,-0 3.429,-1.536 3.429,-3.429l0,-105.871Z" style="fill:url(#_Linear3);"/><path d="M327.165,637.983c36.811,20.042 60.249,53.675 60.249,89.383c-0,15.356 -4.023,30.596 -12.078,44.79c-5.494,9.679 -15.765,15.66 -26.895,15.66l-196.643,0c-11.13,0 -21.401,-5.98 -26.895,-15.66c-8.055,-14.194 -12.078,-29.434 -12.078,-44.79c0,-35.893 23.682,-69.69 60.824,-89.694c-12.836,-16.495 -20.484,-37.222 -20.484,-59.721c-0,-53.737 43.627,-97.364 97.364,-97.364c53.736,-0 97.363,43.627 97.363,97.364c0,22.641 -7.744,43.487 -20.727,60.032Zm-152.457,87.987l150.823,-0c-0.581,-11.25 -8.134,-20.831 -18.402,-28.3c-14.566,-10.596 -34.802,-16.758 -57.009,-16.758c-22.208,0 -42.444,6.162 -57.01,16.758c-10.268,7.469 -17.821,17.05 -18.402,28.3Zm75.821,-183.536c-19.603,-0 -35.517,15.914 -35.517,35.517c-0,19.602 15.914,35.517 35.517,35.517c19.602,-0 35.517,-15.915 35.517,-35.517c-0,-19.603 -15.915,-35.517 -35.517,-35.517Z" style="fill:url(#_Linear4);"/><circle cx="367.473" cy="402.699" r="88.269" style="fill:url(#_Linear5);"/></g></g><defs><linearGradient id="_Linear1" x1="0" y1="0" x2="1" y2="0" gradientUnits="userSpaceOnUse" gradientTransform="matrix(2.79095e-14,-455.797,-3.52851,-2.16059e-16,2294.65,547)"><stop offset="0" style="stop-color:#044577;stop-opacity:1"/><stop offset="0.25" style="stop-color:#4b90c6;stop-opacity:1"/><stop offset="0.59" style="stop-color:#012947;stop-opacity:1"/><stop offset="0.66" style="stop-color:#16517f;stop-opacity:1"/><stop offset="0.74" style="stop-color:#2976b1;stop-opacity:1"/><stop offset="1" style="stop-color:#3185c5;stop-opacity:1"/></linearGradient><linearGradient id="_Linear2" x1="0" y1="0" x2="1" y2="0" gradientUnits="userSpaceOnUse" gradientTransform="matrix(2.79095e-14,-455.797,-3.52851,-2.16059e-16,2294.65,547)"><stop offset="0" style="stop-color:#044577;stop-opacity:1"/><stop offset="0.25" style="stop-color:#4b90c6;stop-opacity:1"/><stop offset="0.59" style="stop-color:#012947;stop-opacity:1"/><stop offset="0.66" style="stop-color:#16517f;stop-opacity:1"/><stop offset="0.74" style="stop-color:#2976b1;stop-opacity:1"/><stop offset="1" style="stop-color:#3185c5;stop-opacity:1"/></linearGradient><linearGradient id="_Linear3" x1="0" y1="0" x2="1" y2="0" gradientUnits="userSpaceOnUse" gradientTransform="matrix(2.79095e-14,-455.797,-3.52851,-2.16059e-16,2294.65,547)"><stop offset="0" style="stop-color:#044577;stop-opacity:1"/><stop offset="0.25" style="stop-color:#4b90c6;stop-opacity:1"/><stop offset="0.59" style="stop-color:#012947;stop-opacity:1"/><stop offset="0.66" style="stop-color:#16517f;stop-opacity:1"/><stop offset="0.74" style="stop-color:#2976b1;stop-opacity:1"/><stop offset="1" style="stop-color:#3185c5;stop-opacity:1"/></linearGradient><linearGradient id="_Linear4" x1="0" y1="0" x2="1" y2="0" gradientUnits="userSpaceOnUse" gradientTransform="matrix(2.79095e-14,-455.797,-3.52851,-2.16059e-16,2294.65,547)"><stop offset="0" style="stop-color:#044577;stop-opacity:1"/><stop offset="0.25" style="stop-color:#4b90c6;stop-opacity:1"/><stop offset="0.59" style="stop-color:#012947;stop-opacity:1"/><stop offset="0.66" style="stop-color:#16517f;stop-opacity:1"/><stop offset="0.74" style="stop-color:#2976b1;stop-opacity:1"/><stop offset="1" style="stop-color:#3185c5;stop-opacity:1"/></linearGradient><linearGradient id="_Linear5" x1="0" y1="0" x2="1" y2="0" gradientUnits="userSpaceOnUse" gradientTransform="matrix(2.79095e-14,-455.797,-3.52851,-2.16059e-16,2294.65,547)"><stop offset="0" style="stop-color:#044577;stop-opacity:1"/><stop offset="0.25" style="stop-color:#4b90c6;stop-opacity:1"/><stop offset="0.59" style="stop-color:#012947;stop-opacity:1"/><stop offset="0.66" style="stop-color:#16517f;stop-opacity:1"/><stop offset="0.74" style="stop-color:#2976b1;stop-opacity:1"/><stop offset="1" style="stop-color:#3185c5;stop-opacity:1"/></linearGradient></defs></svg>