<?xml version="1.0" encoding="UTF-8" standalone="no"?><!DOCTYPE svg PUBLIC "-//W3C//DTD SVG 1.1//EN" "http://www.w3.org/Graphics/SVG/1.1/DTD/svg11.dtd"><svg width="100%" height="100%" viewBox="0 0 2383 463" version="1.1" xmlns="http://www.w3.org/2000/svg" xmlns:xlink="http://www.w3.org/1999/xlink" xml:space="preserve" xmlns:serif="http://www.serif.com/" style="fill-rule:evenodd;clip-rule:evenodd;stroke-linejoin:round;stroke-miterlimit:2;"><g><g><path d="M640.714,370.699c-19.368,-0 -34.535,-5.554 -45.5,-16.662c-10.966,-11.108 -16.449,-26.204 -16.449,-45.287l0,-210.627l58.531,-0l0,208.918c0,3.703 1.353,6.907 4.059,9.613c2.706,2.706 5.91,4.058 9.613,4.058l47.423,0l0,49.987l-57.677,-0Zm-99.118,-167.904l-0,-49.986l156.795,-0l0,49.986l-156.795,0Z" style="fill:url(#_Linear1);fill-rule:nonzero;"/><path d="M726.161,370.699l0,-217.89l58.959,-0l-0,217.89l-58.959,-0Zm29.48,-243.951c-9.969,-0 -18.585,-3.632 -25.848,-10.895c-7.263,-7.263 -10.895,-15.879 -10.895,-25.848c0,-9.969 3.632,-18.584 10.895,-25.847c7.263,-7.263 15.879,-10.895 25.848,-10.895c9.968,0 18.584,3.632 25.847,10.895c7.263,7.263 10.895,15.878 10.895,25.847c-0,9.969 -3.632,18.585 -10.895,25.848c-7.263,7.263 -15.879,10.895 -25.847,10.895Z" style="fill:url(#_Linear2);fill-rule:nonzero;"/><path d="M823.144,370.699l-0,-129.452c-0,-17.09 4.13,-32.755 12.39,-46.996c8.26,-14.241 20.151,-25.563 35.674,-33.965c15.523,-8.403 34.25,-12.604 56.181,-12.604c10.539,0 20.294,1.211 29.266,3.632c8.972,2.421 17.303,5.91 24.993,10.467c7.69,4.557 14.384,9.969 20.08,16.235l0.427,-0c5.982,-6.266 12.818,-11.678 20.508,-16.235c7.69,-4.557 16.092,-8.046 25.207,-10.467c9.114,-2.421 18.94,-3.632 29.479,-3.632c21.931,0 40.659,4.201 56.181,12.604c15.523,8.402 27.415,19.724 35.675,33.965c8.259,14.241 12.389,29.906 12.389,46.996l0,129.452l-58.531,-0l0,-129.452c0,-7.975 -2.065,-15.238 -6.195,-21.789c-4.13,-6.551 -9.613,-11.821 -16.448,-15.808c-6.836,-3.988 -14.526,-5.981 -23.071,-5.981c-8.26,-0 -15.879,1.993 -22.857,5.981c-6.978,3.987 -12.532,9.257 -16.662,15.808c-4.13,6.551 -6.195,13.814 -6.195,21.789l-0,129.452l-58.532,-0l0,-129.452c0,-7.975 -2.064,-15.238 -6.194,-21.789c-4.13,-6.551 -9.613,-11.821 -16.449,-15.808c-6.836,-3.988 -14.526,-5.981 -23.071,-5.981c-8.26,-0 -15.879,1.993 -22.857,5.981c-6.978,3.987 -12.532,9.257 -16.662,15.808c-4.13,6.551 -6.195,13.814 -6.195,21.789l0,129.452l-58.531,-0Z" style="fill:url(#_Linear3);fill-rule:nonzero;"/><path d="M1329.85,370.699c-24.78,-0 -46.355,-4.771 -64.726,-14.312c-18.371,-9.542 -32.612,-22.573 -42.724,-39.092c-10.111,-16.52 -15.166,-35.034 -15.166,-55.541c-0,-23.071 4.699,-43.151 14.098,-60.24c9.399,-17.09 22.217,-30.334 38.451,-39.733c16.235,-9.399 34.607,-14.099 55.114,-14.099c24.495,0 44.361,5.127 59.599,15.381c15.238,10.253 26.418,23.996 33.538,41.228c7.121,17.232 10.681,36.386 10.681,57.463c0,2.848 -0.142,6.195 -0.427,10.04c-0.285,3.845 -0.712,6.765 -1.282,8.758l-147.396,0c2.278,8.83 6.195,16.235 11.749,22.217c5.554,5.981 12.532,10.467 20.934,13.457c8.403,2.991 17.873,4.486 28.412,4.486l60.667,0l-0,49.987l-61.522,-0Zm-60.667,-129.452l91.001,-0c-0.57,-5.412 -1.567,-10.468 -2.991,-15.167c-1.424,-4.7 -3.418,-8.901 -5.981,-12.604c-2.564,-3.702 -5.554,-6.835 -8.972,-9.399c-3.418,-2.563 -7.406,-4.557 -11.963,-5.981c-4.557,-1.424 -9.541,-2.136 -14.953,-2.136c-7.121,-0 -13.458,1.281 -19.012,3.845c-5.554,2.563 -10.182,5.981 -13.885,10.253c-3.703,4.273 -6.622,9.115 -8.758,14.526c-2.137,5.412 -3.632,10.966 -4.486,16.663Z" style="fill:url(#_Linear4);fill-rule:nonzero;"/><rect x="1443.06" y="58.817" width="58.531" height="311.882" style="fill:url(#_Linear5);fill-rule:nonzero;"/><path d="M1540.05,370.699l-0,-217.89l58.958,-0l0,217.89l-58.958,-0Zm29.479,-243.951c-9.969,-0 -18.585,-3.632 -25.848,-10.895c-7.263,-7.263 -10.894,-15.879 -10.894,-25.848c-0,-9.969 3.631,-18.584 10.894,-25.847c7.263,-7.263 15.879,-10.895 25.848,-10.895c9.969,0 18.585,3.632 25.848,10.895c7.263,7.263 10.894,15.878 10.894,25.847c0,9.969 -3.631,18.585 -10.894,25.848c-7.263,7.263 -15.879,10.895 -25.848,10.895Z" style="fill:url(#_Linear6);fill-rule:nonzero;"/><path d="M1637.03,370.699l0,-125.18c0,-17.944 4.202,-34.321 12.604,-49.132c8.402,-14.811 20.578,-26.631 36.528,-35.461c15.951,-8.829 35.034,-13.244 57.25,-13.244c22.501,0 41.655,4.415 57.463,13.244c15.808,8.83 27.913,20.65 36.315,35.461c8.402,14.811 12.604,31.188 12.604,49.132l-0,125.18l-58.532,-0l0,-125.18c0,-8.83 -2.136,-16.876 -6.408,-24.139c-4.273,-7.263 -10.04,-13.031 -17.303,-17.303c-7.263,-4.272 -15.309,-6.408 -24.139,-6.408c-8.83,-0 -16.876,2.136 -24.139,6.408c-7.263,4.272 -13.03,10.04 -17.303,17.303c-4.272,7.263 -6.408,15.309 -6.408,24.139l-0,125.18l-58.532,-0Z" style="fill:url(#_Linear7);fill-rule:nonzero;"/><path d="M1888.24,370.699l-0,-217.89l58.958,-0l0,217.89l-58.958,-0Zm29.479,-243.951c-9.969,-0 -18.585,-3.632 -25.848,-10.895c-7.263,-7.263 -10.894,-15.879 -10.894,-25.848c-0,-9.969 3.631,-18.584 10.894,-25.847c7.263,-7.263 15.879,-10.895 25.848,-10.895c9.969,0 18.585,3.632 25.848,10.895c7.263,7.263 10.894,15.878 10.894,25.847c0,9.969 -3.631,18.585 -10.894,25.848c-7.263,7.263 -15.879,10.895 -25.848,10.895Z" style="fill:url(#_Linear8);fill-rule:nonzero;"/><path d="M2024.1,370.699c-9.684,-0 -18.371,-2.421 -26.062,-7.263c-7.69,-4.842 -13.885,-11.322 -18.584,-19.439c-4.7,-8.118 -7.05,-17.161 -7.05,-27.13c0,-9.114 2.35,-17.516 7.05,-25.207c4.699,-7.69 10.752,-14.098 18.157,-19.225l89.292,-60.24c1.14,-0.57 1.852,-1.282 2.136,-2.137c0.285,-0.854 0.428,-1.566 0.428,-2.136c-0,-1.424 -0.499,-2.634 -1.496,-3.631c-0.997,-0.997 -2.207,-1.496 -3.631,-1.496l-101.255,0l0,-49.986l118.344,-0c9.684,-0 18.371,2.421 26.062,7.263c7.69,4.842 13.885,11.322 18.584,19.439c4.7,8.118 7.05,17.161 7.05,27.13c-0,9.114 -2.35,17.516 -7.05,25.206c-4.699,7.691 -10.752,14.099 -18.157,19.226l-89.292,60.24c-0.855,0.57 -1.496,1.282 -1.923,2.136c-0.427,0.855 -0.641,1.567 -0.641,2.137c0,1.424 0.499,2.634 1.496,3.631c0.996,0.997 2.207,1.495 3.631,1.495l107.236,0l0,49.987l-124.325,-0Z" style="fill:url(#_Linear9);fill-rule:nonzero;"/><path d="M2294.12,370.699c-24.779,-0 -46.355,-4.771 -64.726,-14.312c-18.371,-9.542 -32.612,-22.573 -42.723,-39.092c-10.111,-16.52 -15.167,-35.034 -15.167,-55.541c-0,-23.071 4.7,-43.151 14.099,-60.24c9.399,-17.09 22.216,-30.334 38.451,-39.733c16.235,-9.399 34.606,-14.099 55.113,-14.099c24.495,0 44.362,5.127 59.6,15.381c15.238,10.253 26.417,23.996 33.538,41.228c7.12,17.232 10.68,36.386 10.68,57.463c0,2.848 -0.142,6.195 -0.427,10.04c-0.285,3.845 -0.712,6.765 -1.281,8.758l-147.397,0c2.279,8.83 6.195,16.235 11.749,22.217c5.554,5.981 12.533,10.467 20.935,13.457c8.402,2.991 17.872,4.486 28.411,4.486l60.667,0l0,49.987l-61.522,-0Zm-60.667,-129.452l91.001,-0c-0.569,-5.412 -1.566,-10.468 -2.99,-15.167c-1.425,-4.7 -3.418,-8.901 -5.982,-12.604c-2.563,-3.702 -5.554,-6.835 -8.972,-9.399c-3.418,-2.563 -7.405,-4.557 -11.962,-5.981c-4.557,-1.424 -9.542,-2.136 -14.954,-2.136c-7.12,-0 -13.457,1.281 -19.011,3.845c-5.555,2.563 -10.183,5.981 -13.886,10.253c-3.702,4.273 -6.622,9.115 -8.758,14.526c-2.136,5.412 -3.631,10.966 -4.486,16.663Z" style="fill:url(#_Linear10);fill-rule:nonzero;"/></g><g><path d="M162.749,115.216l0,64.561c0,27.686 -22.477,50.163 -50.163,50.163l-62.423,0c-27.686,0 -50.163,-22.477 -50.163,-50.163l0,-64.561c0,-27.686 22.477,-50.164 50.163,-50.164l62.423,0c27.686,0 50.163,22.478 50.163,50.164Zm-36.315,9.025l0,-9.025c0,-7.644 -6.205,-13.849 -13.848,-13.849l-62.423,0c-7.643,0 -13.848,6.205 -13.848,13.849l0,16.047c3.5,-2.417 7.108,-4.592 10.716,-6.321c11.953,-5.727 24.038,-6.785 34.214,-1.832c6.846,3.333 13.349,9.481 17.998,20.374c1.433,3.357 3.83,6.564 4.767,7.754c0.831,-0.421 2.314,-1.208 3.209,-1.902c3.108,-2.411 6.014,-5.677 8.636,-9.015c4.777,-6.079 8.585,-12.502 10.579,-16.08Zm-90.119,46.022l0,9.514c0,7.643 6.205,13.848 13.848,13.848l62.423,-0c7.643,-0 13.848,-6.205 13.848,-13.848l0,-7.572c-7.727,6.11 -16.222,9.569 -24.181,9.207c-10.204,-0.464 -22.013,-6.265 -30.516,-26.189c-1.055,-2.471 -1.977,-4.335 -3.506,-5.184c-1.741,-0.965 -3.715,0.029 -5.785,0.804c-3.242,1.214 -6.497,3.132 -9.649,5.305c-6.256,4.313 -12.07,9.656 -16.482,14.115Z" style="fill:url(#_Linear11);"/><path d="M291.342,194.209c-0,-0 -28.713,-38.447 -45.957,-73.033c-8.657,-17.362 -14.158,-34.113 -14.158,-45.924c0,-41.533 33.72,-75.252 75.253,-75.252c41.533,0 75.252,33.719 75.252,75.252c0,11.811 -5.501,28.562 -14.157,45.924c-17.244,34.586 -45.957,73.033 -45.957,73.033c-3.569,4.772 -9.179,7.582 -15.138,7.582c-5.959,-0 -11.569,-2.81 -15.138,-7.582Zm15.138,-44.169c8.632,-12.851 19.284,-29.736 27.26,-45.733c5.546,-11.123 10.185,-21.488 10.185,-29.055c0,-20.666 -16.778,-37.445 -37.445,-37.445c-20.667,-0 -37.446,16.779 -37.446,37.445c0,7.567 4.64,17.932 10.186,29.055c7.976,15.997 18.628,32.882 27.26,45.733Z" style="fill:url(#_Linear12);"/><path d="M315.895,368.679c-21.113,-0.048 -38.24,-17.204 -38.24,-38.329l-0,-62.165c-0,-21.154 17.174,-38.328 38.328,-38.328l92.952,-0c21.154,-0 38.329,17.174 38.329,38.328l-0,62.165c-0,21.154 -17.175,38.329 -38.329,38.329l-11.324,-0l-53.008,39.961c-5.538,4.174 -12.97,4.83 -19.153,1.69c-6.183,-3.14 -10.037,-9.528 -9.933,-16.462l0.378,-25.189Zm95.054,-100.494c-0,-1.111 -0.903,-2.013 -2.014,-2.013l-92.952,0c-1.111,0 -2.013,0.902 -2.013,2.013l-0,62.165c-0,1.112 0.902,2.014 2.013,2.014l18.345,-0c4.863,-0 9.522,1.95 12.935,5.415c3.413,3.464 5.293,8.152 5.22,13.015l-0.098,6.501l28.219,-21.273c3.149,-2.374 6.986,-3.658 10.93,-3.658l17.401,-0c1.111,-0 2.014,-0.902 2.014,-2.014l-0,-62.165Z" style="fill:url(#_Linear13);"/><path d="M192.104,374.609c21.614,11.768 35.376,31.516 35.376,52.484c0,9.016 -2.362,17.965 -7.092,26.299c-3.225,5.684 -9.256,9.195 -15.791,9.195l-115.465,0c-6.535,0 -12.566,-3.511 -15.792,-9.195c-4.729,-8.334 -7.092,-17.283 -7.092,-26.299c0,-21.076 13.906,-40.921 35.715,-52.667c-7.537,-9.685 -12.028,-21.856 -12.028,-35.067c-0,-31.553 25.617,-57.17 57.17,-57.17c31.552,0 57.169,25.617 57.169,57.17c0,13.294 -4.547,25.535 -12.17,35.25Zm-89.519,51.663l88.559,0c-0.341,-6.605 -4.776,-12.231 -10.805,-16.616c-8.553,-6.222 -20.435,-9.84 -33.475,-9.84c-13.039,-0 -24.921,3.618 -33.475,9.84c-6.028,4.385 -10.463,10.011 -10.804,16.616Zm44.52,-107.768c-11.511,0 -20.855,9.345 -20.855,20.855c-0,11.51 9.344,20.855 20.855,20.855c11.51,-0 20.854,-9.345 20.854,-20.855c0,-11.51 -9.344,-20.855 -20.854,-20.855Z" style="fill:url(#_Linear14);"/><circle cx="215.771" cy="236.456" r="51.829" style="fill:url(#_Linear15);"/></g></g><defs><linearGradient id="_Linear1" x1="0" y1="0" x2="1" y2="0" gradientUnits="userSpaceOnUse" gradientTransform="matrix(7.60711e-15,-124.234,-1.0065,-6.16305e-17,944.223,281.584)"><stop offset="0" style="stop-color:#d1e3f1;stop-opacity:1"/><stop offset="0.26" style="stop-color:#a2bed3;stop-opacity:1"/><stop offset="0.54" style="stop-color:#fff;stop-opacity:1"/><stop offset="1" style="stop-color:#f2f9ff;stop-opacity:1"/></linearGradient><linearGradient id="_Linear2" x1="0" y1="0" x2="1" y2="0" gradientUnits="userSpaceOnUse" gradientTransform="matrix(7.60711e-15,-124.234,-1.0065,-6.16305e-17,944.223,281.584)"><stop offset="0" style="stop-color:#d1e3f1;stop-opacity:1"/><stop offset="0.26" style="stop-color:#a2bed3;stop-opacity:1"/><stop offset="0.54" style="stop-color:#fff;stop-opacity:1"/><stop offset="1" style="stop-color:#f2f9ff;stop-opacity:1"/></linearGradient><linearGradient id="_Linear3" x1="0" y1="0" x2="1" y2="0" gradientUnits="userSpaceOnUse" gradientTransform="matrix(7.60711e-15,-124.234,-1.0065,-6.16305e-17,944.223,281.584)"><stop offset="0" style="stop-color:#d1e3f1;stop-opacity:1"/><stop offset="0.26" style="stop-color:#a2bed3;stop-opacity:1"/><stop offset="0.54" style="stop-color:#fff;stop-opacity:1"/><stop offset="1" style="stop-color:#f2f9ff;stop-opacity:1"/></linearGradient><linearGradient id="_Linear4" x1="0" y1="0" x2="1" y2="0" gradientUnits="userSpaceOnUse" gradientTransform="matrix(7.60711e-15,-124.234,-1.0065,-6.16305e-17,944.223,281.584)"><stop offset="0" style="stop-color:#d1e3f1;stop-opacity:1"/><stop offset="0.26" style="stop-color:#a2bed3;stop-opacity:1"/><stop offset="0.54" style="stop-color:#fff;stop-opacity:1"/><stop offset="1" style="stop-color:#f2f9ff;stop-opacity:1"/></linearGradient><linearGradient id="_Linear5" x1="0" y1="0" x2="1" y2="0" gradientUnits="userSpaceOnUse" gradientTransform="matrix(7.60711e-15,-124.234,-1.0065,-6.16305e-17,944.223,281.584)"><stop offset="0" style="stop-color:#d1e3f1;stop-opacity:1"/><stop offset="0.26" style="stop-color:#a2bed3;stop-opacity:1"/><stop offset="0.54" style="stop-color:#fff;stop-opacity:1"/><stop offset="1" style="stop-color:#f2f9ff;stop-opacity:1"/></linearGradient><linearGradient id="_Linear6" x1="0" y1="0" x2="1" y2="0" gradientUnits="userSpaceOnUse" gradientTransform="matrix(7.60711e-15,-124.234,-1.0065,-6.16305e-17,944.223,281.584)"><stop offset="0" style="stop-color:#d1e3f1;stop-opacity:1"/><stop offset="0.26" style="stop-color:#a2bed3;stop-opacity:1"/><stop offset="0.54" style="stop-color:#fff;stop-opacity:1"/><stop offset="1" style="stop-color:#f2f9ff;stop-opacity:1"/></linearGradient><linearGradient id="_Linear7" x1="0" y1="0" x2="1" y2="0" gradientUnits="userSpaceOnUse" gradientTransform="matrix(7.60711e-15,-124.234,-1.0065,-6.16305e-17,944.223,281.584)"><stop offset="0" style="stop-color:#d1e3f1;stop-opacity:1"/><stop offset="0.26" style="stop-color:#a2bed3;stop-opacity:1"/><stop offset="0.54" style="stop-color:#fff;stop-opacity:1"/><stop offset="1" style="stop-color:#f2f9ff;stop-opacity:1"/></linearGradient><linearGradient id="_Linear8" x1="0" y1="0" x2="1" y2="0" gradientUnits="userSpaceOnUse" gradientTransform="matrix(7.60711e-15,-124.234,-1.0065,-6.16305e-17,944.223,281.584)"><stop offset="0" style="stop-color:#d1e3f1;stop-opacity:1"/><stop offset="0.26" style="stop-color:#a2bed3;stop-opacity:1"/><stop offset="0.54" style="stop-color:#fff;stop-opacity:1"/><stop offset="1" style="stop-color:#f2f9ff;stop-opacity:1"/></linearGradient><linearGradient id="_Linear9" x1="0" y1="0" x2="1" y2="0" gradientUnits="userSpaceOnUse" gradientTransform="matrix(7.60711e-15,-124.234,-1.0065,-6.16305e-17,944.223,281.584)"><stop offset="0" style="stop-color:#d1e3f1;stop-opacity:1"/><stop offset="0.26" style="stop-color:#a2bed3;stop-opacity:1"/><stop offset="0.54" style="stop-color:#fff;stop-opacity:1"/><stop offset="1" style="stop-color:#f2f9ff;stop-opacity:1"/></linearGradient><linearGradient id="_Linear10" x1="0" y1="0" x2="1" y2="0" gradientUnits="userSpaceOnUse" gradientTransform="matrix(7.60711e-15,-124.234,-1.0065,-6.16305e-17,944.223,281.584)"><stop offset="0" style="stop-color:#d1e3f1;stop-opacity:1"/><stop offset="0.26" style="stop-color:#a2bed3;stop-opacity:1"/><stop offset="0.54" style="stop-color:#fff;stop-opacity:1"/><stop offset="1" style="stop-color:#f2f9ff;stop-opacity:1"/></linearGradient><linearGradient id="_Linear11" x1="0" y1="0" x2="1" y2="0" gradientUnits="userSpaceOnUse" gradientTransform="matrix(7.60711e-15,-124.234,-1.0065,-6.16305e-17,944.223,281.584)"><stop offset="0" style="stop-color:#d1e3f1;stop-opacity:1"/><stop offset="0.26" style="stop-color:#a2bed3;stop-opacity:1"/><stop offset="0.54" style="stop-color:#fff;stop-opacity:1"/><stop offset="1" style="stop-color:#f2f9ff;stop-opacity:1"/></linearGradient><linearGradient id="_Linear12" x1="0" y1="0" x2="1" y2="0" gradientUnits="userSpaceOnUse" gradientTransform="matrix(7.60711e-15,-124.234,-1.0065,-6.16305e-17,944.223,281.584)"><stop offset="0" style="stop-color:#d1e3f1;stop-opacity:1"/><stop offset="0.26" style="stop-color:#a2bed3;stop-opacity:1"/><stop offset="0.54" style="stop-color:#fff;stop-opacity:1"/><stop offset="1" style="stop-color:#f2f9ff;stop-opacity:1"/></linearGradient><linearGradient id="_Linear13" x1="0" y1="0" x2="1" y2="0" gradientUnits="userSpaceOnUse" gradientTransform="matrix(7.60711e-15,-124.234,-1.0065,-6.16305e-17,944.223,281.584)"><stop offset="0" style="stop-color:#d1e3f1;stop-opacity:1"/><stop offset="0.26" style="stop-color:#a2bed3;stop-opacity:1"/><stop offset="0.54" style="stop-color:#fff;stop-opacity:1"/><stop offset="1" style="stop-color:#f2f9ff;stop-opacity:1"/></linearGradient><linearGradient id="_Linear14" x1="0" y1="0" x2="1" y2="0" gradientUnits="userSpaceOnUse" gradientTransform="matrix(7.60711e-15,-124.234,-1.0065,-6.16305e-17,944.223,281.584)"><stop offset="0" style="stop-color:#d1e3f1;stop-opacity:1"/><stop offset="0.26" style="stop-color:#a2bed3;stop-opacity:1"/><stop offset="0.54" style="stop-color:#fff;stop-opacity:1"/><stop offset="1" style="stop-color:#f2f9ff;stop-opacity:1"/></linearGradient><linearGradient id="_Linear15" x1="0" y1="0" x2="1" y2="0" gradientUnits="userSpaceOnUse" gradientTransform="matrix(7.60711e-15,-124.234,-1.0065,-6.16305e-17,944.223,281.584)"><stop offset="0" style="stop-color:#d1e3f1;stop-opacity:1"/><stop offset="0.26" style="stop-color:#a2bed3;stop-opacity:1"/><stop offset="0.54" style="stop-color:#fff;stop-opacity:1"/><stop offset="1" style="stop-color:#f2f9ff;stop-opacity:1"/></linearGradient></defs></svg>