<?xml version="1.0" encoding="UTF-8" standalone="no"?>
<!DOCTYPE svg PUBLIC "-//W3C//DTD SVG 1.1//EN" "http://www.w3.org/Graphics/SVG/1.1/DTD/svg11.dtd">
<svg width="100%" height="100%" viewBox="0 0 472 83" version="1.1" xmlns="http://www.w3.org/2000/svg" xmlns:xlink="http://www.w3.org/1999/xlink" xml:space="preserve" xmlns:serif="http://www.serif.com/" style="fill-rule:evenodd;clip-rule:evenodd;stroke-linejoin:round;stroke-miterlimit:2;">
    <g transform="matrix(1,0,0,1,-5974.44,-115.646)">
        <g transform="matrix(0.612292,0,0,0.138379,5770.96,0)">
            <g transform="matrix(6.3826,0,0,25.4244,-443.067,368.542)">
                <g transform="matrix(0.0363465,0,0,0.0403738,23.4086,-248.744)">
                    <g transform="matrix(606.989,0,0,606.989,3450.12,7114.62)">
                        <path d="M0.242,-0C0.197,-0 0.161,-0.013 0.136,-0.039C0.11,-0.065 0.097,-0.1 0.097,-0.145L0.097,-0.638L0.234,-0.638L0.234,-0.149C0.234,-0.14 0.237,-0.133 0.244,-0.127C0.25,-0.12 0.257,-0.117 0.266,-0.117L0.377,-0.117L0.377,-0L0.242,-0ZM0.01,-0.393L0.01,-0.51L0.377,-0.51L0.377,-0.393L0.01,-0.393Z" style="fill:url(#_Linear1);fill-rule:nonzero;"/>
                    </g>
                    <g transform="matrix(606.989,0,0,606.989,3687.45,7114.62)">
                        <path d="M0.065,-0L0.065,-0.51L0.203,-0.51L0.203,-0L0.065,-0ZM0.134,-0.571C0.111,-0.571 0.091,-0.58 0.074,-0.597C0.056,-0.614 0.048,-0.634 0.048,-0.657C0.048,-0.68 0.056,-0.701 0.074,-0.718C0.091,-0.735 0.111,-0.743 0.134,-0.743C0.157,-0.743 0.178,-0.735 0.195,-0.718C0.212,-0.701 0.22,-0.68 0.22,-0.657C0.22,-0.634 0.212,-0.614 0.195,-0.597C0.178,-0.58 0.157,-0.571 0.134,-0.571Z" style="fill:url(#_Linear2);fill-rule:nonzero;"/>
                    </g>
                    <g transform="matrix(606.989,0,0,606.989,3805.82,7114.62)">
                        <path d="M0.065,-0L0.065,-0.303C0.065,-0.343 0.075,-0.38 0.094,-0.413C0.113,-0.446 0.141,-0.473 0.178,-0.493C0.214,-0.512 0.258,-0.522 0.309,-0.522C0.334,-0.522 0.357,-0.519 0.378,-0.514C0.399,-0.508 0.418,-0.5 0.436,-0.489C0.454,-0.478 0.47,-0.466 0.483,-0.451L0.484,-0.451C0.498,-0.466 0.514,-0.478 0.532,-0.489C0.55,-0.5 0.57,-0.508 0.591,-0.514C0.612,-0.519 0.635,-0.522 0.66,-0.522C0.711,-0.522 0.755,-0.512 0.792,-0.493C0.828,-0.473 0.856,-0.446 0.875,-0.413C0.894,-0.38 0.904,-0.343 0.904,-0.303L0.904,-0L0.767,-0L0.767,-0.303C0.767,-0.322 0.762,-0.339 0.753,-0.354C0.743,-0.369 0.73,-0.382 0.714,-0.391C0.698,-0.4 0.68,-0.405 0.66,-0.405C0.641,-0.405 0.623,-0.4 0.607,-0.391C0.59,-0.382 0.577,-0.369 0.568,-0.354C0.558,-0.339 0.553,-0.322 0.553,-0.303L0.553,-0L0.416,-0L0.416,-0.303C0.416,-0.322 0.411,-0.339 0.402,-0.354C0.392,-0.369 0.379,-0.382 0.363,-0.391C0.347,-0.4 0.329,-0.405 0.309,-0.405C0.29,-0.405 0.272,-0.4 0.256,-0.391C0.239,-0.382 0.226,-0.369 0.217,-0.354C0.207,-0.339 0.202,-0.322 0.202,-0.303L0.202,-0L0.065,-0Z" style="fill:url(#_Linear3);fill-rule:nonzero;"/>
                    </g>
                    <g transform="matrix(606.989,0,0,606.989,4366.67,7114.62)">
                        <path d="M0.322,-0C0.264,-0 0.214,-0.011 0.171,-0.034C0.128,-0.056 0.094,-0.086 0.071,-0.125C0.047,-0.164 0.035,-0.207 0.035,-0.255C0.035,-0.309 0.046,-0.356 0.068,-0.396C0.09,-0.436 0.12,-0.467 0.158,-0.489C0.196,-0.511 0.239,-0.522 0.287,-0.522C0.344,-0.522 0.391,-0.51 0.427,-0.486C0.462,-0.462 0.488,-0.43 0.505,-0.39C0.522,-0.349 0.53,-0.304 0.53,-0.255C0.53,-0.248 0.53,-0.241 0.529,-0.232C0.528,-0.223 0.527,-0.216 0.526,-0.211L0.181,-0.211C0.186,-0.19 0.196,-0.173 0.209,-0.159C0.222,-0.145 0.238,-0.135 0.258,-0.128C0.277,-0.121 0.299,-0.117 0.324,-0.117L0.466,-0.117L0.466,-0L0.322,-0ZM0.18,-0.303L0.393,-0.303C0.392,-0.316 0.389,-0.328 0.386,-0.339C0.383,-0.349 0.378,-0.359 0.372,-0.368C0.366,-0.377 0.359,-0.384 0.351,-0.39C0.343,-0.396 0.334,-0.401 0.323,-0.404C0.312,-0.407 0.301,-0.409 0.288,-0.409C0.271,-0.409 0.257,-0.406 0.244,-0.4C0.231,-0.394 0.22,-0.386 0.211,-0.376C0.202,-0.366 0.196,-0.355 0.191,-0.342C0.186,-0.329 0.182,-0.316 0.18,-0.303Z" style="fill:url(#_Linear4);fill-rule:nonzero;"/>
                    </g>
                    <g transform="matrix(606.989,0,0,606.989,4688.98,7114.62)">
                        <rect x="0.065" y="-0.73" width="0.137" height="0.73" style="fill:url(#_Linear5);fill-rule:nonzero;"/>
                    </g>
                    <g transform="matrix(606.989,0,0,606.989,4807.35,7114.62)">
                        <path d="M0.065,-0L0.065,-0.51L0.203,-0.51L0.203,-0L0.065,-0ZM0.134,-0.571C0.111,-0.571 0.091,-0.58 0.074,-0.597C0.056,-0.614 0.048,-0.634 0.048,-0.657C0.048,-0.68 0.056,-0.701 0.074,-0.718C0.091,-0.735 0.111,-0.743 0.134,-0.743C0.157,-0.743 0.178,-0.735 0.195,-0.718C0.212,-0.701 0.22,-0.68 0.22,-0.657C0.22,-0.634 0.212,-0.614 0.195,-0.597C0.178,-0.58 0.157,-0.571 0.134,-0.571Z" style="fill:url(#_Linear6);fill-rule:nonzero;"/>
                    </g>
                    <g transform="matrix(606.989,0,0,606.989,4925.71,7114.62)">
                        <path d="M0.065,-0L0.065,-0.293C0.065,-0.335 0.075,-0.373 0.095,-0.408C0.114,-0.443 0.143,-0.47 0.18,-0.491C0.217,-0.512 0.262,-0.522 0.314,-0.522C0.367,-0.522 0.412,-0.512 0.449,-0.491C0.486,-0.47 0.514,-0.443 0.534,-0.408C0.553,-0.373 0.563,-0.335 0.563,-0.293L0.563,-0L0.426,-0L0.426,-0.293C0.426,-0.314 0.421,-0.333 0.411,-0.35C0.401,-0.367 0.388,-0.38 0.371,-0.39C0.354,-0.4 0.335,-0.405 0.314,-0.405C0.293,-0.405 0.275,-0.4 0.258,-0.39C0.241,-0.38 0.227,-0.367 0.217,-0.35C0.207,-0.333 0.202,-0.314 0.202,-0.293L0.202,-0L0.065,-0Z" style="fill:url(#_Linear7);fill-rule:nonzero;"/>
                    </g>
                    <g transform="matrix(606.989,0,0,606.989,5268.05,7114.62)">
                        <path d="M0.065,-0L0.065,-0.51L0.203,-0.51L0.203,-0L0.065,-0ZM0.134,-0.571C0.111,-0.571 0.091,-0.58 0.074,-0.597C0.056,-0.614 0.048,-0.634 0.048,-0.657C0.048,-0.68 0.056,-0.701 0.074,-0.718C0.091,-0.735 0.111,-0.743 0.134,-0.743C0.157,-0.743 0.178,-0.735 0.195,-0.718C0.212,-0.701 0.22,-0.68 0.22,-0.657C0.22,-0.634 0.212,-0.614 0.195,-0.597C0.178,-0.58 0.157,-0.571 0.134,-0.571Z" style="fill:url(#_Linear8);fill-rule:nonzero;"/>
                    </g>
                    <g transform="matrix(606.989,0,0,606.989,5410.69,7114.62)">
                        <path d="M0.156,-0C0.133,-0 0.113,-0.006 0.095,-0.017C0.077,-0.028 0.063,-0.044 0.052,-0.063C0.041,-0.082 0.035,-0.103 0.035,-0.126C0.035,-0.147 0.041,-0.167 0.052,-0.185C0.063,-0.203 0.077,-0.218 0.094,-0.23L0.303,-0.371C0.306,-0.372 0.307,-0.374 0.308,-0.376C0.309,-0.378 0.309,-0.38 0.309,-0.381C0.309,-0.384 0.308,-0.387 0.306,-0.39C0.303,-0.392 0.3,-0.393 0.297,-0.393L0.06,-0.393L0.06,-0.51L0.337,-0.51C0.36,-0.51 0.38,-0.504 0.398,-0.493C0.416,-0.482 0.431,-0.467 0.442,-0.448C0.452,-0.428 0.458,-0.407 0.458,-0.384C0.458,-0.363 0.452,-0.343 0.442,-0.325C0.431,-0.307 0.416,-0.292 0.399,-0.28L0.19,-0.139C0.188,-0.138 0.187,-0.136 0.186,-0.134C0.185,-0.132 0.184,-0.13 0.184,-0.129C0.184,-0.126 0.185,-0.123 0.188,-0.121C0.19,-0.118 0.193,-0.117 0.196,-0.117L0.447,-0.117L0.447,-0L0.156,-0Z" style="fill:url(#_Linear9);fill-rule:nonzero;"/>
                    </g>
                    <g transform="matrix(606.989,0,0,606.989,5694.76,7114.62)">
                        <path d="M0.322,-0C0.264,-0 0.214,-0.011 0.171,-0.034C0.128,-0.056 0.094,-0.086 0.071,-0.125C0.047,-0.164 0.035,-0.207 0.035,-0.255C0.035,-0.309 0.046,-0.356 0.068,-0.396C0.09,-0.436 0.12,-0.467 0.158,-0.489C0.196,-0.511 0.239,-0.522 0.287,-0.522C0.344,-0.522 0.391,-0.51 0.427,-0.486C0.462,-0.462 0.488,-0.43 0.505,-0.39C0.522,-0.349 0.53,-0.304 0.53,-0.255C0.53,-0.248 0.53,-0.241 0.529,-0.232C0.528,-0.223 0.527,-0.216 0.526,-0.211L0.181,-0.211C0.186,-0.19 0.196,-0.173 0.209,-0.159C0.222,-0.145 0.238,-0.135 0.258,-0.128C0.277,-0.121 0.299,-0.117 0.324,-0.117L0.466,-0.117L0.466,-0L0.322,-0ZM0.18,-0.303L0.393,-0.303C0.392,-0.316 0.389,-0.328 0.386,-0.339C0.383,-0.349 0.378,-0.359 0.372,-0.368C0.366,-0.377 0.359,-0.384 0.351,-0.39C0.343,-0.396 0.334,-0.401 0.323,-0.404C0.312,-0.407 0.301,-0.409 0.288,-0.409C0.271,-0.409 0.257,-0.406 0.244,-0.4C0.231,-0.394 0.22,-0.386 0.211,-0.376C0.202,-0.366 0.196,-0.355 0.191,-0.342C0.186,-0.329 0.182,-0.316 0.18,-0.303Z" style="fill:url(#_Linear10);fill-rule:nonzero;"/>
                    </g>
                </g>
                <g transform="matrix(0.0194028,0,0,0.0493426,-32.8161,-286.345)">
                    <g transform="matrix(3.92476,0,0,1.71432,-26847.1,-3644.78)">
                        <path d="M8866.76,5837.74L8866.68,5837.74L8866.68,5796.37C8866.68,5780.48 8879.58,5767.59 8895.46,5767.59L8933.48,5767.59C8949.36,5767.59 8962.26,5780.48 8962.26,5796.37L8962.26,5835.68C8962.26,5851.57 8949.36,5864.46 8933.48,5864.46L8895.46,5864.46C8880.27,5864.46 8867.81,5852.66 8866.76,5837.74ZM8943.68,5803.47L8943.68,5796.37C8943.68,5790.74 8939.11,5786.17 8933.48,5786.17L8895.46,5786.17C8889.83,5786.17 8885.26,5790.74 8885.26,5796.37L8885.26,5810.7C8889.14,5807.87 8893.44,5805.32 8897.77,5803.83C8902.68,5802.14 8907.66,5801.72 8912.33,5803.01C8917.09,5804.33 8921.68,5807.39 8925.48,5813.28C8927.17,5815.91 8928.58,5817.54 8930.25,5817.92C8931.18,5818.13 8932.03,5817.69 8932.86,5817.19C8933.99,5816.52 8935.04,5815.59 8936.03,5814.57C8939.55,5810.95 8942.29,5806.15 8943.68,5803.47ZM8885.26,5828.68L8885.26,5835.68C8885.26,5841.31 8889.83,5845.89 8895.46,5845.89L8933.48,5845.89C8939.11,5845.89 8943.68,5841.31 8943.68,5835.68L8943.68,5826.28C8938.76,5830.47 8932.98,5832.68 8927.19,5831.36C8922.93,5830.39 8918.23,5827.47 8913.9,5820.76C8912.33,5818.33 8910.61,5816.84 8908.65,5816.3C8905.23,5815.35 8901.57,5816.84 8898.08,5818.76C8893.11,5821.48 8888.54,5825.46 8885.26,5828.68Z" style="fill:url(#_Linear11);"/>
                    </g>
                    <g transform="matrix(-2.89989,-1.55121e-16,3.46193e-16,-1.23477,11423.7,8414.88)">
                        <path d="M957.263,1654.82C957.263,1654.82 978.998,1688.24 992.048,1718.31C998.32,1732.76 1002.44,1746.63 1002.44,1756.46C1002.44,1787.95 977.509,1813.52 946.807,1813.52C916.106,1813.52 891.18,1787.95 891.18,1756.46C891.18,1746.63 895.295,1732.76 901.567,1718.31C914.617,1688.24 936.352,1654.82 936.352,1654.82C938.685,1651.24 942.607,1649.09 946.807,1649.09C951.007,1649.09 954.93,1651.24 957.263,1654.82ZM946.807,1686.15C939.951,1697.76 931.079,1713.73 924.538,1728.8C919.959,1739.35 916.325,1749.28 916.325,1756.46C916.325,1773.72 929.984,1787.73 946.807,1787.73C963.631,1787.73 977.29,1773.72 977.29,1756.46C977.29,1749.28 973.655,1739.35 969.077,1728.8C962.535,1713.73 953.663,1697.76 946.807,1686.15Z" style="fill:url(#_Linear12);"/>
                    </g>
                    <g transform="matrix(3.67786,0,0,1.80725,5654.69,2341.97)">
                        <path d="M826.951,2335.42C814.751,2334.34 805.209,2325.18 805.209,2314.06L805.209,2275.05C805.209,2263.21 816.03,2253.59 829.359,2253.59L887.506,2253.59C900.834,2253.59 911.656,2263.21 911.656,2275.05L911.656,2314.06C911.656,2325.91 900.834,2335.53 887.506,2335.53L884.402,2335.53L836.067,2354.85C832.303,2356.35 827.884,2355.62 824.973,2353.02C822.062,2350.42 821.27,2346.49 822.983,2343.15L826.951,2335.42ZM851.817,2329.23L878.21,2318.68C879.489,2318.16 880.874,2317.9 882.276,2317.9L887.506,2317.9C889.892,2317.9 891.83,2316.18 891.83,2314.06L891.83,2275.05C891.83,2272.93 889.892,2271.21 887.506,2271.21L829.359,2271.21C826.973,2271.21 825.035,2272.93 825.035,2275.05L825.035,2314.06C825.035,2316.18 826.973,2317.9 829.359,2317.9L842.316,2317.9C845.688,2317.9 848.83,2319.43 850.654,2321.95C852.228,2324.12 852.635,2326.78 851.817,2329.23Z" style="fill:url(#_Linear13);"/>
                    </g>
                    <g transform="matrix(3.92476,0,0,1.71432,-26847.1,-3644.78)">
                        <path d="M8979.14,5954.88C8992.82,5961.55 9001.68,5973.48 9001.68,5986.29C9001.68,5991.48 9000.31,5996.64 8997.59,6001.43C8995.94,6004.34 8992.85,6006.14 8989.51,6006.14L8919.19,6006.14C8915.85,6006.14 8912.76,6004.34 8911.11,6001.43C8908.39,5996.64 8907.03,5991.48 8907.03,5986.29C8907.03,5973.42 8915.97,5961.43 8929.77,5954.78C8924.59,5948.94 8921.45,5941.27 8921.45,5932.86C8921.45,5914.62 8936.26,5899.82 8954.5,5899.82C8972.74,5899.82 8987.54,5914.62 8987.54,5932.86C8987.54,5941.32 8984.36,5949.03 8979.14,5954.88ZM8983.02,5987.56C8983.07,5987.14 8983.1,5986.72 8983.1,5986.29C8983.1,5981.51 8980.09,5977.38 8975.78,5974.24C8970.3,5970.26 8962.7,5967.91 8954.35,5967.91C8946,5967.91 8938.4,5970.26 8932.93,5974.24C8928.61,5977.38 8925.6,5981.51 8925.6,5986.29C8925.6,5986.72 8925.63,5987.14 8925.68,5987.56L8983.02,5987.56ZM8954.5,5918.4C8946.51,5918.4 8940.03,5924.88 8940.03,5932.86C8940.03,5940.85 8946.51,5947.33 8954.5,5947.33C8962.48,5947.33 8968.97,5940.85 8968.97,5932.86C8968.97,5924.88 8962.48,5918.4 8954.5,5918.4Z" style="fill:url(#_Linear14);"/>
                    </g>
                    <g transform="matrix(4.27538,0,0,1.86747,-1444.79,5856.62)">
                        <circle cx="2317.01" cy="300.95" r="23.511" style="fill:url(#_Linear15);"/>
                    </g>
                </g>
            </g>
        </g>
    </g>
    <defs>
        <linearGradient id="_Linear1" x1="0" y1="0" x2="1" y2="0" gradientUnits="userSpaceOnUse" gradientTransform="matrix(4.45132e-17,0.726955,-0.726955,4.45132e-17,1.83479,-0.644265)"><stop offset="0" style="stop-color:rgb(39,124,189);stop-opacity:1"/><stop offset="1" style="stop-color:rgb(1,18,31);stop-opacity:1"/></linearGradient>
        <linearGradient id="_Linear2" x1="0" y1="0" x2="1" y2="0" gradientUnits="userSpaceOnUse" gradientTransform="matrix(4.45132e-17,0.726955,-0.726955,4.45132e-17,1.44379,-0.644265)"><stop offset="0" style="stop-color:rgb(39,124,189);stop-opacity:1"/><stop offset="1" style="stop-color:rgb(1,18,31);stop-opacity:1"/></linearGradient>
        <linearGradient id="_Linear3" x1="0" y1="0" x2="1" y2="0" gradientUnits="userSpaceOnUse" gradientTransform="matrix(4.45132e-17,0.726955,-0.726955,4.45132e-17,1.24879,-0.644265)"><stop offset="0" style="stop-color:rgb(39,124,189);stop-opacity:1"/><stop offset="1" style="stop-color:rgb(1,18,31);stop-opacity:1"/></linearGradient>
        <linearGradient id="_Linear4" x1="0" y1="0" x2="1" y2="0" gradientUnits="userSpaceOnUse" gradientTransform="matrix(4.45132e-17,0.726955,-0.726955,4.45132e-17,0.324795,-0.644265)"><stop offset="0" style="stop-color:rgb(39,124,189);stop-opacity:1"/><stop offset="1" style="stop-color:rgb(1,18,31);stop-opacity:1"/></linearGradient>
        <linearGradient id="_Linear5" x1="0" y1="0" x2="1" y2="0" gradientUnits="userSpaceOnUse" gradientTransform="matrix(4.45132e-17,0.726955,-0.726955,4.45132e-17,-0.206205,-0.644265)"><stop offset="0" style="stop-color:rgb(39,124,189);stop-opacity:1"/><stop offset="1" style="stop-color:rgb(1,18,31);stop-opacity:1"/></linearGradient>
        <linearGradient id="_Linear6" x1="0" y1="0" x2="1" y2="0" gradientUnits="userSpaceOnUse" gradientTransform="matrix(4.45132e-17,0.726955,-0.726955,4.45132e-17,-0.401205,-0.644265)"><stop offset="0" style="stop-color:rgb(39,124,189);stop-opacity:1"/><stop offset="1" style="stop-color:rgb(1,18,31);stop-opacity:1"/></linearGradient>
        <linearGradient id="_Linear7" x1="0" y1="0" x2="1" y2="0" gradientUnits="userSpaceOnUse" gradientTransform="matrix(4.45132e-17,0.726955,-0.726955,4.45132e-17,-0.596205,-0.644265)"><stop offset="0" style="stop-color:rgb(39,124,189);stop-opacity:1"/><stop offset="1" style="stop-color:rgb(1,18,31);stop-opacity:1"/></linearGradient>
        <linearGradient id="_Linear8" x1="0" y1="0" x2="1" y2="0" gradientUnits="userSpaceOnUse" gradientTransform="matrix(4.45132e-17,0.726955,-0.726955,4.45132e-17,-1.16021,-0.644265)"><stop offset="0" style="stop-color:rgb(39,124,189);stop-opacity:1"/><stop offset="1" style="stop-color:rgb(1,18,31);stop-opacity:1"/></linearGradient>
        <linearGradient id="_Linear9" x1="0" y1="0" x2="1" y2="0" gradientUnits="userSpaceOnUse" gradientTransform="matrix(4.45132e-17,0.726955,-0.726955,4.45132e-17,-1.39521,-0.644265)"><stop offset="0" style="stop-color:rgb(39,124,189);stop-opacity:1"/><stop offset="1" style="stop-color:rgb(1,18,31);stop-opacity:1"/></linearGradient>
        <linearGradient id="_Linear10" x1="0" y1="0" x2="1" y2="0" gradientUnits="userSpaceOnUse" gradientTransform="matrix(4.45132e-17,0.726955,-0.726955,4.45132e-17,-1.86321,-0.644265)"><stop offset="0" style="stop-color:rgb(39,124,189);stop-opacity:1"/><stop offset="1" style="stop-color:rgb(1,18,31);stop-opacity:1"/></linearGradient>
        <linearGradient id="_Linear11" x1="0" y1="0" x2="1" y2="0" gradientUnits="userSpaceOnUse" gradientTransform="matrix(1.57384e-14,257.027,-92.4538,5.66116e-15,8981.96,5771.39)"><stop offset="0" style="stop-color:rgb(39,124,189);stop-opacity:1"/><stop offset="1" style="stop-color:rgb(1,18,31);stop-opacity:1"/></linearGradient>
        <linearGradient id="_Linear12" x1="0" y1="0" x2="1" y2="0" gradientUnits="userSpaceOnUse" gradientTransform="matrix(-6.39019e-14,-356.85,125.129,-2.35794e-14,1041,1753.88)"><stop offset="0" style="stop-color:rgb(39,124,189);stop-opacity:1"/><stop offset="1" style="stop-color:rgb(1,18,31);stop-opacity:1"/></linearGradient>
        <linearGradient id="_Linear13" x1="0" y1="0" x2="1" y2="0" gradientUnits="userSpaceOnUse" gradientTransform="matrix(1.6795e-14,243.811,-98.6604,5.37006e-15,747.787,2161.99)"><stop offset="0" style="stop-color:rgb(39,124,189);stop-opacity:1"/><stop offset="1" style="stop-color:rgb(1,18,31);stop-opacity:1"/></linearGradient>
        <linearGradient id="_Linear14" x1="0" y1="0" x2="1" y2="0" gradientUnits="userSpaceOnUse" gradientTransform="matrix(1.57384e-14,257.027,-92.4538,5.66116e-15,8981.96,5771.39)"><stop offset="0" style="stop-color:rgb(39,124,189);stop-opacity:1"/><stop offset="1" style="stop-color:rgb(1,18,31);stop-opacity:1"/></linearGradient>
        <linearGradient id="_Linear15" x1="0" y1="0" x2="1" y2="0" gradientUnits="userSpaceOnUse" gradientTransform="matrix(1.44477e-14,235.949,-84.8716,5.19689e-15,2303.83,210.244)"><stop offset="0" style="stop-color:rgb(39,124,189);stop-opacity:1"/><stop offset="1" style="stop-color:rgb(1,18,31);stop-opacity:1"/></linearGradient>
    </defs>
</svg>
