<?xml version="1.0" encoding="UTF-8" standalone="no"?><!DOCTYPE svg PUBLIC "-//W3C//DTD SVG 1.1//EN" "http://www.w3.org/Graphics/SVG/1.1/DTD/svg11.dtd"><svg width="100%" height="100%" viewBox="0 0 88 91" version="1.1" xmlns="http://www.w3.org/2000/svg" xmlns:xlink="http://www.w3.org/1999/xlink" xml:space="preserve" xmlns:serif="http://www.serif.com/" style="fill-rule:evenodd;clip-rule:evenodd;stroke-linejoin:round;stroke-miterlimit:2;"><g><g><path d="M0.024,35.708l-0.024,0l0,-13.514c0,-5.189 4.213,-9.402 9.401,-9.402l12.418,0c5.189,0 9.401,4.213 9.401,9.402l0,12.843c0,5.189 -4.212,9.401 -9.401,9.401l-12.418,0c-4.963,0 -9.033,-3.854 -9.377,-8.73Zm25.127,-11.196l0,-2.318c0,-1.839 -1.493,-3.333 -3.332,-3.333l-12.418,0c-1.839,0 -3.332,1.494 -3.332,3.333l0,4.681c1.267,-0.923 2.67,-1.756 4.085,-2.243c1.605,-0.552 3.231,-0.691 4.756,-0.269c1.556,0.431 3.054,1.431 4.296,3.355c0.554,0.858 1.014,1.393 1.56,1.517c0.301,0.069 0.579,-0.076 0.852,-0.239c0.367,-0.22 0.711,-0.522 1.036,-0.856c1.148,-1.181 2.043,-2.749 2.497,-3.628Zm-19.082,8.236l0,2.289c0,1.839 1.493,3.332 3.332,3.332l12.418,0c1.839,0 3.332,-1.493 3.332,-3.332l0,-3.073c-1.607,1.369 -3.494,2.092 -5.384,1.662c-1.394,-0.317 -2.928,-1.273 -4.344,-3.465c-0.513,-0.794 -1.072,-1.28 -1.714,-1.458c-1.117,-0.309 -2.312,0.178 -3.453,0.804c-1.623,0.891 -3.118,2.191 -4.187,3.241Z" style="fill:url(#_Linear1);"/></g><path d="M57.867,37.341c-0,-0 -5.246,-7.863 -8.396,-14.938c-1.514,-3.4 -2.507,-6.663 -2.507,-8.977c-0,-7.41 6.016,-13.426 13.426,-13.426c7.41,0 13.427,6.016 13.427,13.426c-0,2.314 -0.994,5.577 -2.507,8.977c-3.15,7.075 -8.396,14.938 -8.396,14.938c-0.563,0.843 -1.51,1.349 -2.524,1.349c-1.014,0 -1.96,-0.506 -2.523,-1.349Zm2.523,-7.371c1.655,-2.733 3.796,-6.489 5.375,-10.035c1.105,-2.482 1.983,-4.82 1.983,-6.509c-0,-4.06 -3.297,-7.357 -7.358,-7.357c-4.06,0 -7.357,3.297 -7.357,7.357c-0,1.689 0.877,4.027 1.982,6.509c1.579,3.546 3.72,7.302 5.375,10.035Z" style="fill:url(#_Linear2);"/><path d="M61.889,73.758c-3.734,-0.371 -6.655,-3.525 -6.655,-7.357l-0,-13.431c-0,-4.081 3.312,-7.393 7.392,-7.393l17.8,-0c4.08,-0 7.393,3.312 7.393,7.393l-0,13.431c-0,4.08 -3.313,7.393 -7.393,7.393l-0.95,0l-14.796,6.654c-1.153,0.518 -2.505,0.268 -3.396,-0.628c-0.891,-0.896 -1.134,-2.25 -0.61,-3.4l1.215,-2.662Zm7.612,-2.133l8.079,-3.633c0.392,-0.176 0.816,-0.267 1.245,-0.267l1.601,-0c0.73,-0 1.324,-0.593 1.324,-1.324l-0,-13.431c-0,-0.731 -0.594,-1.324 -1.324,-1.324l-17.8,-0c-0.73,-0 -1.323,0.593 -1.323,1.324l-0,13.431c-0,0.731 0.593,1.324 1.323,1.324l3.966,-0c1.033,-0 1.995,0.525 2.553,1.393c0.482,0.75 0.606,1.666 0.356,2.507Z" style="fill:url(#_Linear3);"/><g><path d="M36.735,73.973c4.468,2.181 7.362,6.078 7.362,10.262c0,1.696 -0.446,3.379 -1.335,4.947c-0.539,0.95 -1.547,1.537 -2.639,1.537l-22.97,-0c-1.092,-0 -2.1,-0.587 -2.639,-1.537c-0.889,-1.568 -1.335,-3.251 -1.335,-4.947c-0,-4.205 2.923,-8.12 7.428,-10.295c-1.69,-1.906 -2.716,-4.413 -2.716,-7.158c-0,-5.958 4.837,-10.795 10.795,-10.795c5.958,0 10.795,4.837 10.795,10.795c0,2.761 -1.038,5.281 -2.746,7.191Zm1.269,10.676c0.016,-0.137 0.024,-0.275 0.024,-0.414c0,-1.562 -0.983,-2.911 -2.391,-3.936c-1.789,-1.301 -4.272,-2.068 -6.999,-2.068c-2.727,0 -5.21,0.767 -6.999,2.068c-1.408,1.025 -2.391,2.374 -2.391,3.936c-0,0.139 0.008,0.277 0.024,0.414l18.732,0Zm-9.318,-22.593c-2.609,0 -4.726,2.118 -4.726,4.726c-0,2.609 2.117,4.727 4.726,4.727c2.608,-0 4.726,-2.118 4.726,-4.727c-0,-2.608 -2.118,-4.726 -4.726,-4.726Z" style="fill:url(#_Linear4);"/></g><circle cx="42.346" cy="46.312" r="8.366" style="fill:url(#_Linear5);"/></g><defs><linearGradient id="_Linear1" x1="0" y1="0" x2="1" y2="0" gradientUnits="userSpaceOnUse" gradientTransform="matrix(3.03409e-15,49.5504,-104.998,6.4293e-15,221.831,22.1242)"><stop offset="0" style="stop-color:#489cdc;stop-opacity:1"/><stop offset="1" style="stop-color:#01345b;stop-opacity:1"/></linearGradient><linearGradient id="_Linear2" x1="0" y1="0" x2="1" y2="0" gradientUnits="userSpaceOnUse" gradientTransform="matrix(3.03409e-15,49.5504,-104.998,6.4293e-15,221.831,22.1242)"><stop offset="0" style="stop-color:#489cdc;stop-opacity:1"/><stop offset="1" style="stop-color:#01345b;stop-opacity:1"/></linearGradient><linearGradient id="_Linear3" x1="0" y1="0" x2="1" y2="0" gradientUnits="userSpaceOnUse" gradientTransform="matrix(3.03409e-15,49.5504,-104.998,6.4293e-15,221.831,22.1242)"><stop offset="0" style="stop-color:#489cdc;stop-opacity:1"/><stop offset="1" style="stop-color:#01345b;stop-opacity:1"/></linearGradient><linearGradient id="_Linear4" x1="0" y1="0" x2="1" y2="0" gradientUnits="userSpaceOnUse" gradientTransform="matrix(3.03409e-15,49.5504,-104.998,6.4293e-15,221.831,22.1242)"><stop offset="0" style="stop-color:#489cdc;stop-opacity:1"/><stop offset="1" style="stop-color:#01345b;stop-opacity:1"/></linearGradient><linearGradient id="_Linear5" x1="0" y1="0" x2="1" y2="0" gradientUnits="userSpaceOnUse" gradientTransform="matrix(3.03409e-15,49.5504,-104.998,6.4293e-15,221.831,22.1242)"><stop offset="0" style="stop-color:#489cdc;stop-opacity:1"/><stop offset="1" style="stop-color:#01345b;stop-opacity:1"/></linearGradient></defs></svg>